<svg xmlns="http://www.w3.org/2000/svg" width="256" height="256" viewBox="0 0 256 256" version="1.1">
	<path d="M 182 1.337 C 180.075 1.888, 178.365 2.436, 178.199 2.554 C 178.034 2.672, 178.804 6.314, 179.910 10.648 C 181.905 18.461, 181.906 18.591, 180.006 25.976 C 178.953 30.072, 178.183 33.469, 178.295 33.524 C 178.408 33.580, 180.147 34.105, 182.159 34.691 L 185.818 35.757 187.452 29.128 C 188.351 25.483, 189.312 21.746, 189.587 20.825 C 189.933 19.667, 189.380 19.015, 187.794 18.711 L 185.500 18.272 187.750 18.136 C 188.988 18.061, 190 17.737, 190 17.417 C 190 16.666, 185.885 0.527, 185.666 0.417 C 185.574 0.372, 183.925 0.785, 182 1.337 M 208.423 40.018 C 196.794 45.176, 192.642 46.400, 170.923 51.076 C 157.490 53.968, 146.400 56.397, 146.277 56.473 C 146.155 56.550, 146.502 58.233, 147.048 60.213 L 148.042 63.813 154.166 62.384 C 157.534 61.599, 160.497 61.163, 160.750 61.417 C 161.004 61.670, 159.096 64.627, 156.510 67.987 C 151.982 73.871, 151.170 76.087, 134.399 128.319 L 116.988 182.542 101.588 211.897 C 88.470 236.902, 85.354 242.095, 80.559 246.940 C 75.136 252.421, 74.999 252.689, 76.794 254.314 C 77.819 255.241, 79.537 256, 80.613 256 C 82.959 256, 93.384 245.750, 92.276 244.532 C 91.849 244.063, 92.023 243.978, 92.662 244.344 C 93.420 244.778, 99.083 234.956, 108.980 216.039 L 124.136 187.069 142.210 130.789 C 158.243 80.861, 160.714 73.945, 164.098 69.507 L 167.912 64.505 165.389 62.493 L 162.865 60.481 181.183 56.578 C 196.045 53.411, 201.858 51.643, 212 47.208 C 218.875 44.202, 224.645 41.618, 224.822 41.466 C 225 41.313, 224.325 39.620, 223.322 37.703 L 221.500 34.218 208.423 40.018 M 59 64.337 C 57.075 64.888, 55.379 65.421, 55.231 65.522 C 55.017 65.667, 61.522 98.080, 63.459 106.519 C 64.325 110.295, 56.382 113.400, 27.446 120.599 C 12.625 124.286, 0.400 127.372, 0.277 127.457 C 0.155 127.543, 0.498 129.220, 1.040 131.184 L 2.027 134.756 30.763 127.554 C 46.569 123.592, 60.513 119.806, 61.750 119.140 L 64 117.930 64 130.087 C 64 139.696, 63.738 142.029, 62.750 141.215 C 61.832 140.459, 55.465 144.331, 38.789 155.787 C 19.638 168.943, 16.268 171.621, 17.289 172.868 C 18.305 174.108, 18.150 174.257, 16.333 173.789 C 14.344 173.276, 14.074 173.777, 13.058 179.865 C 12.449 183.514, 11.701 187.738, 11.396 189.250 C 10.953 191.447, 11.209 192.003, 12.671 192.015 C 13.875 192.025, 14.095 192.288, 13.315 192.784 C 12.493 193.307, 14.455 197.283, 19.718 205.764 C 25.839 215.627, 27.571 217.771, 28.676 216.854 C 29.742 215.970, 29.923 216.037, 29.492 217.160 C 28.791 218.988, 41.637 222.421, 42.386 220.605 C 42.704 219.836, 42.866 219.852, 42.921 220.658 C 42.973 221.426, 44.857 221.089, 48.507 219.658 C 52.296 218.174, 53.849 217.066, 53.484 216.109 C 53.071 215.023, 53.260 214.971, 54.344 215.871 C 55.473 216.808, 56.701 215.406, 60.887 208.402 C 65.233 201.131, 66.429 197.984, 68.520 188.310 C 70.244 180.339, 71.001 173.738, 71.002 166.670 C 71.004 161.076, 71.299 146.747, 71.659 134.827 L 72.314 113.154 81.258 108.327 C 87.748 104.825, 91.538 101.964, 95.067 97.904 L 99.931 92.308 97.104 89.600 L 94.277 86.891 90.243 91.696 C 87.693 94.733, 83.572 97.918, 79.042 100.354 C 75.100 102.474, 71.727 104.049, 71.545 103.854 C 71.364 103.659, 69.351 94.522, 67.073 83.548 C 64.794 72.575, 62.833 63.538, 62.715 63.466 C 62.597 63.393, 60.925 63.785, 59 64.337 M 191.570 83.861 C 191.273 85.312, 189.223 97.384, 187.014 110.687 C 184.284 127.121, 182.027 137.502, 179.972 143.077 C 178.308 147.589, 177.071 151.358, 177.223 151.453 C 177.376 151.547, 179.151 152.106, 181.170 152.694 L 184.840 153.764 187.951 145.132 C 190.092 139.192, 192.444 128.250, 195.494 110.046 C 197.931 95.496, 199.830 83.543, 199.713 83.483 C 199.596 83.424, 197.837 82.890, 195.805 82.298 C 192.261 81.265, 192.088 81.328, 191.570 83.861 M 218.259 109.939 L 204.070 112.430 204.670 114.965 C 205.813 119.794, 205.831 119.797, 219 117.316 C 225.875 116.021, 232.472 115.125, 233.660 115.325 C 235.165 115.578, 236.145 114.977, 236.889 113.344 C 237.558 111.877, 237.591 111, 236.979 111 C 236.440 111, 235.201 110.201, 234.224 109.224 C 232.522 107.522, 231.852 107.552, 218.259 109.939 M 43.500 161.018 C 33.050 168.238, 23.881 174.500, 23.124 174.933 C 22.368 175.366, 21.196 178.942, 20.521 182.880 L 19.293 190.039 25.983 200.770 C 32.501 211.225, 32.799 211.534, 37.587 212.816 C 45.153 214.843, 48.784 212.896, 54.087 203.970 C 60.258 193.583, 63.150 179.391, 62.777 161.329 L 62.500 147.891 43.500 161.018 M 190.023 165.879 C 189.490 167.809, 189.155 169.467, 189.277 169.565 C 189.400 169.663, 195.125 170.753, 202 171.989 C 212.222 173.825, 215.001 174.703, 217.250 176.804 C 220.566 179.903, 220.594 180.513, 217.811 189.154 C 215.653 195.855, 215.465 196.078, 204.380 205.098 C 195.527 212.301, 193.313 214.592, 193.966 215.873 C 194.421 216.768, 195.178 218.448, 195.647 219.606 C 196.492 221.692, 196.676 221.665, 215.500 216.700 C 225.950 213.943, 234.600 211.620, 234.723 211.538 C 234.845 211.455, 234.498 209.764, 233.950 207.780 L 232.954 204.172 222.283 207.059 C 216.414 208.646, 211.498 209.831, 211.358 209.691 C 211.218 209.552, 213.750 207.296, 216.983 204.678 C 222.431 200.268, 223.062 199.316, 225.578 191.709 C 227.071 187.194, 228.500 182.938, 228.754 182.250 C 229.038 181.479, 228.333 181, 226.916 181 C 224.854 181, 224.789 180.872, 226.287 179.750 C 227.797 178.619, 227.563 177.998, 223.838 173.244 C 220.547 169.043, 219.442 168.218, 218.337 169.135 C 217.255 170.033, 217.075 169.968, 217.508 168.839 C 217.948 167.692, 215.275 166.877, 204.527 164.882 L 190.992 162.370 190.023 165.879 M 157.417 184.250 C 157.950 198.956, 157.786 203.559, 156.576 207.953 C 155.750 210.953, 155.170 213.456, 155.287 213.516 C 155.404 213.576, 157.182 214.116, 159.238 214.715 L 162.975 215.805 164.047 211.653 C 164.637 209.369, 165.367 206.652, 165.670 205.615 C 165.973 204.578, 165.894 195.240, 165.495 184.865 L 164.769 166 160.763 166 L 156.757 166 157.417 184.250" stroke="none" fill="black" fill-rule="evenodd"/>
</svg>