<svg xmlns="http://www.w3.org/2000/svg" width="256" height="256" viewBox="0 0 256 256" version="1.1">
	<path d="M 104.710 26.775 C 89.111 50.209, 84.986 55.623, 71.210 70.741 C 62.570 80.224, 53.925 89.039, 52 90.331 C 46.818 93.807, 42.261 96.413, 44.142 94.824 C 45.610 93.585, 45.629 93.140, 44.325 90.652 C 43.142 88.393, 42.595 88.091, 41.433 89.056 C 40.295 90, 40 89.929, 40 88.708 C 40 87.517, 38.535 87.095, 33.498 86.835 L 26.996 86.500 26.998 90.198 L 27 93.895 32.250 94.198 C 37.150 94.480, 37.521 94.684, 37.817 97.256 C 38.022 99.041, 37.589 100.221, 36.585 100.606 C 35.439 101.046, 35.286 101.665, 35.996 102.993 C 37.811 106.383, 34.489 113.962, 27.603 122.144 L 21.170 129.789 23.835 132.331 L 26.500 134.873 37.163 126.186 C 44.755 120.002, 49.195 115.484, 52.578 110.500 C 55.191 106.650, 58.184 102.390, 59.229 101.034 C 61.060 98.656, 61.063 98.517, 59.314 97.169 C 58.020 96.171, 57.860 95.636, 58.756 95.300 C 59.447 95.041, 59.715 94.348, 59.352 93.760 C 58.988 93.172, 59.143 92.971, 59.696 93.312 C 60.249 93.654, 67.581 86.319, 75.989 77.012 C 89.240 62.345, 93.789 56.321, 110.135 31.797 L 128.994 3.504 126.747 1.774 C 125.511 0.823, 124.050 0.046, 123.500 0.047 C 122.950 0.049, 114.495 12.076, 104.710 26.775 M 126.586 33.942 C 126.351 34.799, 125.886 36.456, 125.552 37.624 C 124.989 39.597, 125.514 39.835, 132.966 40.995 C 140.331 42.140, 141.273 42.559, 144.493 46.124 C 146.422 48.259, 148 50.804, 148 51.779 C 148 53.252, 148.694 53.487, 152.087 53.163 C 155.699 52.819, 156.107 52.525, 155.601 50.637 C 155.285 49.462, 155.021 47.952, 155.014 47.281 C 155.006 46.555, 154.294 46.311, 153.250 46.679 C 151.818 47.183, 151.728 47.049, 152.756 45.941 C 154.549 44.009, 146.327 35.484, 144.296 37.169 C 143.262 38.027, 143.083 37.947, 143.515 36.821 C 143.956 35.672, 142.252 35.041, 135.545 33.871 C 127.856 32.530, 126.971 32.537, 126.586 33.942 M 109.608 68.067 L 96.813 83.121 88.656 82.485 C 84.170 82.136, 79.938 81.673, 79.250 81.456 C 78.394 81.187, 78 82.313, 78 85.031 L 78 89 83.833 89 C 87.042 89, 89.940 89.273, 90.273 89.607 C 90.607 89.940, 87.644 93.979, 83.690 98.582 C 78.724 104.363, 71.211 111.057, 59.400 120.227 C 43.113 132.872, 41.770 133.693, 31.187 137.478 C 20.515 141.295, 20.099 141.552, 20.673 143.976 C 21.830 148.867, 22.047 148.877, 33.624 144.605 C 44.170 140.713, 45.668 139.783, 62.480 126.678 C 72.232 119.076, 80.794 112.633, 81.505 112.360 C 82.216 112.087, 86.729 107.169, 91.534 101.432 C 96.338 95.694, 100.485 91, 100.749 91 C 101.013 91, 112.990 96.242, 127.364 102.648 C 149.066 112.320, 155.322 114.672, 164.241 116.511 L 174.982 118.725 175.964 115.169 C 176.504 113.213, 176.845 111.543, 176.723 111.457 C 176.600 111.372, 172.480 110.520, 167.567 109.564 C 160.631 108.213, 152.807 105.244, 132.567 96.280 C 118.230 89.930, 106.392 84.649, 106.260 84.544 C 106.128 84.439, 109.653 80.111, 114.094 74.927 C 118.535 69.742, 123.464 63.881, 125.048 61.902 L 127.927 58.304 125.165 55.659 L 122.404 53.013 109.608 68.067 M 1.648 108.750 C 1.390 119.612, 0.872 130.354, 0.497 132.620 C -0.152 136.538, -0.039 136.791, 2.802 137.781 C 5.765 138.814, 5.808 138.776, 7.895 133.322 C 9.774 128.413, 10 125.736, 10 108.411 L 10 89 6.058 89 L 2.117 89 1.648 108.750 M 47.383 102.772 C 46.218 103.723, 45.016 105.538, 44.711 106.807 C 44.005 109.750, 45.757 108.419, 48.307 104.077 C 50.383 100.540, 50.286 100.403, 47.383 102.772 M 95.297 126.673 C 80.867 142.281, 76.389 147.723, 76.994 148.918 C 77.434 149.788, 78.178 151.461, 78.647 152.635 C 79.484 154.730, 79.787 154.660, 95 148.867 C 104.776 145.144, 111.685 143.063, 113.710 143.232 L 116.920 143.500 104.820 157.500 C 98.165 165.200, 92.433 171.617, 92.081 171.760 C 91.730 171.902, 90.629 170.642, 89.635 168.959 C 88.165 166.471, 87.559 166.121, 86.391 167.091 C 85.244 168.043, 85.066 167.992, 85.509 166.837 C 85.933 165.733, 84.641 165.156, 80.036 164.394 C 74.880 163.542, 73.947 163.622, 73.584 164.949 C 73.350 165.802, 72.885 167.459, 72.550 168.631 C 71.996 170.568, 72.435 170.824, 77.369 171.440 C 82.731 172.110, 86.858 174.803, 85.612 176.820 C 85.290 177.340, 79.563 181.715, 72.884 186.543 C 62.355 194.154, 59.595 195.648, 52.120 197.784 C 47.379 199.138, 43.400 200.329, 43.277 200.430 C 43.155 200.530, 43.497 202.218, 44.039 204.180 L 45.024 207.747 53.711 205.243 C 61.477 203.005, 63.929 201.630, 76.852 192.262 C 84.802 186.499, 92.651 180.967, 94.294 179.967 C 98.810 177.221, 128.151 142.751, 126.975 141.575 C 126.439 141.039, 126 139.863, 126 138.963 C 126 137.678, 124.393 137.123, 118.512 136.377 C 113.421 135.732, 110.885 135.759, 110.591 136.464 C 110.339 137.066, 110.125 136.995, 110.079 136.295 C 110.005 135.160, 108.159 135.715, 94.616 140.940 C 92.364 141.809, 93.788 139.839, 101.116 131.953 C 106.277 126.398, 112.618 119.476, 115.206 116.571 L 119.912 111.290 117.156 108.650 L 114.401 106.010 95.297 126.673 M 136.754 155.219 C 125.717 167.797, 118.452 176.866, 118.925 177.474 C 119.365 178.038, 120.006 179.684, 120.351 181.130 L 120.978 183.760 137.739 178.872 C 149.969 175.305, 155.444 174.146, 157.992 174.583 C 162.865 175.418, 162.932 175.517, 161.624 179.946 C 160.762 182.865, 156.437 188.226, 145.112 200.411 C 136.674 209.492, 128.644 217.658, 127.269 218.559 C 124.818 220.166, 124.679 220.108, 120.092 215.591 C 116.329 211.884, 115.168 211.230, 114.149 212.242 C 113.129 213.254, 112.996 213.199, 113.467 211.961 C 113.933 210.736, 112.316 209.999, 105.549 208.351 C 96.146 206.061, 97.209 205.693, 95.486 211.833 C 95.045 213.404, 96.110 213.926, 102.930 215.484 C 109.566 217, 111.486 217.913, 114.482 220.981 L 118.074 224.661 102.787 234.753 C 89.539 243.499, 86.148 245.257, 77.364 247.930 L 67.228 251.016 61.131 249.118 L 55.033 247.220 54.044 250.804 C 53.499 252.775, 53.303 254.638, 53.608 254.944 C 53.912 255.250, 59.087 255.653, 65.108 255.839 C 81.280 256.340, 85.542 254.776, 106.632 240.603 L 123.703 229.130 128.556 234.057 L 133.408 238.983 136.217 236.292 L 139.025 233.602 135.013 229.513 C 132.806 227.264, 131 225.115, 131 224.738 C 131 224.360, 132.238 223.406, 133.750 222.618 C 135.262 221.830, 143.475 213.698, 152 204.547 C 167.555 187.852, 168.845 185.932, 171.359 175.750 C 171.936 173.412, 171.726 173, 169.952 173 C 168.395 173, 168.011 172.542, 168.439 171.193 C 168.922 169.670, 167.996 169.143, 162.541 167.838 C 157.959 166.742, 155.937 166.612, 155.614 167.395 C 155.295 168.168, 155.134 168.154, 155.079 167.347 C 155.024 166.543, 153.110 166.748, 148.750 168.027 C 130.600 173.348, 131.567 173.149, 133.164 171.239 C 134.323 169.853, 149.413 152.571, 159.187 141.436 C 160.951 139.426, 160.925 139.303, 158.190 136.682 L 155.381 133.990 136.754 155.219" stroke="none" fill="black" fill-rule="evenodd"/>
</svg>