<svg xmlns="http://www.w3.org/2000/svg" width="256" height="256" viewBox="0 0 256 256" version="1.1">
	<path d="M 108.975 2.250 C 108.961 2.938, 108.103 11.640, 107.068 21.588 C 105.254 39.010, 105.037 39.970, 101.171 47.660 C 98.561 52.852, 95.878 56.618, 93.499 58.433 L 89.840 61.224 92.561 64.063 L 95.281 66.903 99.726 63.261 C 102.885 60.673, 105.420 57.132, 108.486 51.028 C 112.650 42.738, 112.856 41.880, 114.399 26.469 C 115.278 17.686, 116.265 8.362, 116.592 5.750 L 117.188 1 113.094 1 C 110.499 1, 108.991 1.458, 108.975 2.250 M 162.833 37.831 C 162.650 38.288, 158.225 41.535, 153 45.047 C 144.993 50.428, 139.334 53.048, 117 61.710 L 90.500 71.988 79.872 71.994 C 72.575 71.998, 68.925 71.608, 68.224 70.750 C 67.518 69.885, 67.933 65.202, 69.570 55.551 C 70.871 47.879, 71.838 41.551, 71.718 41.489 C 71.598 41.426, 69.837 40.890, 67.805 40.298 C 63.551 39.058, 64.152 37.753, 61.500 54 C 60.647 59.225, 59.700 64.737, 59.395 66.250 C 58.921 68.605, 59.167 69, 61.112 69 C 63.152 69, 63.213 69.127, 61.712 70.250 C 60.167 71.407, 60.197 71.742, 62.119 74.749 C 63.261 76.536, 64.601 77.747, 65.097 77.440 C 65.594 77.133, 66 77.584, 66 78.441 C 66 79.769, 67.835 80, 78.389 80 L 90.777 80 117.008 69.883 C 136.248 62.462, 144.940 58.577, 149.620 55.306 C 153.129 52.852, 156 51.055, 156 51.311 C 156 53.264, 144.556 74.859, 141.492 78.689 C 139.374 81.335, 137.282 83.985, 136.842 84.577 C 136.362 85.224, 137.187 86.501, 138.904 87.771 L 141.767 89.887 148.256 81.694 C 152.563 76.255, 157.497 68, 162.932 57.143 C 167.435 48.146, 170.980 40.678, 170.810 40.547 C 170.325 40.172, 163.724 37, 163.430 37 C 163.285 37, 163.017 37.374, 162.833 37.831 M 64.866 100.195 C 59.715 106.841, 55.225 112.704, 54.889 113.224 C 54.552 113.744, 48.027 115.540, 40.389 117.215 C 32.750 118.891, 26.400 120.340, 26.277 120.437 C 26.155 120.533, 26.497 122.216, 27.038 124.176 L 28.022 127.740 36.176 125.842 C 40.660 124.797, 44.682 124.068, 45.112 124.222 C 46.874 124.848, 36.048 136.936, 28.294 143 C 21.736 148.130, 18.713 149.802, 13.955 150.932 C 9.551 151.979, 8.071 152.742, 8.463 153.764 C 8.758 154.534, 8.999 156.364, 8.998 157.832 C 8.997 160.339, 9.276 160.500, 13.630 160.500 C 17.424 160.500, 18.590 160.953, 20.068 163 C 21.815 165.421, 21.798 165.930, 19.524 179.117 C 18.233 186.607, 16.263 194.524, 15.148 196.710 L 13.119 200.686 16.499 202.298 L 19.879 203.910 22.443 199.324 C 25.803 193.311, 30.847 165.154, 28.797 163.853 C 28.084 163.401, 27.891 163.024, 28.369 163.015 C 28.846 163.007, 28.063 161.460, 26.628 159.579 L 24.018 156.157 32.226 149.620 C 40.277 143.207, 40.453 143.126, 41.467 145.369 L 42.500 147.655 59.500 144.343 C 77.816 140.775, 84 140.696, 84 144.030 C 84 149.447, 76.748 193.586, 75.444 196.108 C 74.465 198.001, 72.877 199.275, 71.037 199.643 C 68.443 200.161, 68.212 200.530, 68.678 203.402 C 69.184 206.523, 69.061 206.640, 62.520 209.235 C 57.675 211.157, 48.256 213.037, 28.172 216.089 C 12.953 218.403, 0.358 220.408, 0.186 220.546 C 0.013 220.683, 0.159 222.332, 0.511 224.209 L 1.152 227.623 19.234 224.802 C 29.178 223.251, 37.483 222.150, 37.688 222.355 C 38.467 223.134, 15.443 251.878, 14.333 251.511 C 13.253 251.155, 11.510 253.844, 12.305 254.639 C 12.499 254.833, 14.647 255.224, 17.079 255.509 L 21.500 256.027 33.263 240.763 C 44.532 226.141, 44.942 225.442, 43.013 224.128 C 41.906 223.373, 41 222.425, 41 222.020 C 41 221.615, 45.162 220.749, 50.250 220.095 C 58.852 218.989, 69.100 215.688, 81.772 209.942 L 86.043 208.005 84.121 204.237 C 82.468 200.998, 82.381 200.120, 83.498 197.984 C 84.435 196.195, 93 143.436, 93 139.457 C 93 139.206, 92.114 139, 91.031 139 C 89.808 139, 89.255 138.498, 89.571 137.676 C 89.919 136.768, 88.334 135.865, 84.540 134.809 C 80.712 133.744, 78.995 133.612, 78.985 134.384 C 78.974 135.170, 78.752 135.181, 78.235 134.423 C 77.725 133.676, 73.060 134.197, 63 136.123 C 55.025 137.650, 47.242 139.140, 45.705 139.434 C 42.692 140.010, 42.205 140.781, 55.619 123.753 C 57.347 121.560, 59.470 120.685, 67.119 119.017 C 78.171 116.606, 104.333 105.309, 103.555 103.283 C 103.289 102.591, 103.508 102.131, 104.041 102.262 C 104.574 102.393, 105.901 101.117, 106.991 99.428 L 108.972 96.355 106.037 94.186 L 103.103 92.017 101.407 94.888 C 100.113 97.079, 96.519 99.215, 86.238 103.901 C 78.827 107.279, 71.017 110.435, 68.882 110.915 L 65 111.787 71.669 103.144 C 75.337 98.390, 78.703 94.015, 79.148 93.423 C 79.638 92.772, 78.826 91.508, 77.095 90.228 L 74.231 88.111 64.866 100.195 M 141.500 110.304 C 133.250 111.954, 126.400 113.374, 126.277 113.458 C 126.155 113.543, 126.497 115.215, 127.037 117.173 L 128.020 120.733 136.758 118.947 C 141.563 117.965, 145.663 117.329, 145.868 117.534 C 146.072 117.739, 139.159 125.294, 130.504 134.323 C 116.548 148.882, 113.712 151.339, 105.437 156.036 C 97.086 160.775, 96.216 161.535, 97.146 163.273 C 97.861 164.609, 97.863 165.537, 97.152 166.248 C 96.441 166.959, 97.380 168.778, 100.167 172.082 L 104.215 176.883 103.489 184.192 C 103.090 188.211, 101.886 193.231, 100.812 195.347 C 99.739 197.463, 99.004 199.328, 99.180 199.492 C 99.356 199.656, 101.132 200.466, 103.127 201.292 L 106.754 202.795 108.826 198.148 C 111.281 192.641, 112.985 174, 111.034 174 C 110.401 174, 110.123 173.610, 110.417 173.134 C 110.712 172.657, 110.022 171.425, 108.884 170.395 C 104.202 166.158, 104.474 165.436, 112.454 160.896 C 116.794 158.426, 119.636 156.206, 119.261 155.578 C 118.906 154.985, 119.323 155.073, 120.188 155.772 C 121.052 156.472, 122.025 158.376, 122.350 160.002 C 122.709 161.793, 123.446 162.792, 124.221 162.535 C 124.924 162.302, 133.012 160.710, 142.194 158.998 C 156.862 156.264, 159.385 156.035, 162.985 157.114 C 165.567 157.887, 166.903 158.810, 166.597 159.608 C 166.330 160.305, 165.593 162.796, 164.961 165.144 C 163.363 171.080, 159.177 176.798, 151.488 183.549 L 144.924 189.311 147.600 192.104 L 150.276 194.897 156.264 189.699 C 162.096 184.635, 170.333 173.894, 170.333 171.353 C 170.333 170.657, 170.675 170.299, 171.092 170.557 C 171.509 170.815, 172.585 168.432, 173.482 165.263 C 174.379 162.093, 175.343 158.713, 175.624 157.750 C 175.997 156.470, 175.561 156, 174 156 C 172.401 156, 172.008 155.549, 172.435 154.205 C 172.904 152.726, 171.859 152.037, 166.502 150.295 C 162.111 148.867, 159.995 148.558, 159.985 149.341 C 159.974 150.136, 159.739 150.165, 159.235 149.433 C 158.731 148.701, 153.162 149.400, 141.500 151.657 C 132.150 153.467, 123.942 154.847, 123.259 154.724 C 122.577 154.601, 130.973 145.072, 141.918 133.548 L 161.818 112.596 159.659 109.853 C 158.471 108.345, 157.275 107.154, 157 107.207 C 156.725 107.260, 149.750 108.653, 141.500 110.304 M 49 164 L 49 168 57.378 168 C 66.330 168, 69.599 166.572, 66.512 164.010 C 65.681 163.320, 65 162.135, 65 161.378 C 65 160.322, 63.128 160, 57 160 L 49 160 49 164 M 123.477 194.816 C 115.914 207.292, 107.982 219.323, 105.850 221.551 L 101.975 225.602 104.783 228.292 L 107.592 230.983 112.154 226.242 C 115.433 222.833, 139.569 184.992, 143.573 176.980 C 143.716 176.695, 142.347 175.487, 140.531 174.296 L 137.228 172.131 123.477 194.816 M 49 178 L 49 182 56.300 182 C 60.315 182, 64.073 182.473, 64.651 183.051 C 65.386 183.786, 66.209 183.330, 67.386 181.533 C 68.879 179.255, 68.896 178.897, 67.535 178.375 C 66.691 178.051, 66 176.934, 66 175.893 C 66 174.184, 65.173 174, 57.500 174 L 49 174 49 178 M 51.250 191.783 L 40 192.066 39.998 195.783 L 39.996 199.500 52.921 199.195 C 62.057 198.980, 66.165 198.506, 66.935 197.578 C 67.740 196.608, 67.629 195.937, 66.512 195.010 C 65.681 194.320, 65 193.210, 65 192.544 C 65 191.878, 64.438 191.371, 63.750 191.417 C 63.063 191.463, 57.438 191.627, 51.250 191.783 M 139.662 205.831 L 137.020 208.588 153.760 222.104 C 169.681 234.958, 171 235.798, 180.714 239.270 L 190.928 242.920 191.937 239.266 C 192.492 237.257, 192.845 235.549, 192.723 235.472 C 192.600 235.395, 188.391 233.871, 183.369 232.086 C 175.309 229.221, 172.786 227.664, 161.869 218.810 C 155.066 213.293, 147.881 207.495, 145.902 205.926 L 142.304 203.073 139.662 205.831 M 52.588 231.311 C 52.265 232.927, 52 234.592, 52 235.010 C 52 235.428, 54.466 236.078, 57.480 236.454 L 62.960 237.139 68.642 245.319 C 71.766 249.819, 74.588 253.804, 74.912 254.175 C 75.235 254.547, 76.741 253.852, 78.258 252.631 L 81.017 250.412 74.758 241.373 C 71.316 236.402, 68.100 232.298, 67.612 232.253 C 67.123 232.208, 66.448 231.754, 66.112 231.245 C 65.775 230.736, 62.727 229.882, 59.338 229.346 L 53.176 228.372 52.588 231.311" stroke="none" fill="black" fill-rule="evenodd"/>
</svg>