<svg xmlns="http://www.w3.org/2000/svg" width="256" height="256" viewBox="0 0 256 256" version="1.1">
	<path d="M 158 1.337 C 156.075 1.888, 154.386 2.414, 154.247 2.506 C 154.108 2.597, 155.121 7.764, 156.497 13.988 C 157.874 20.211, 159 25.818, 159 26.447 C 159 27.076, 151.463 29.763, 142.250 32.417 C 133.037 35.071, 125.400 37.326, 125.277 37.428 C 125.155 37.529, 125.499 39.223, 126.043 41.192 L 127.031 44.771 143.704 39.881 C 156.062 36.257, 160.570 35.304, 161.122 36.198 C 162.569 38.538, 163.175 47.060, 162.484 55.347 L 161.786 63.732 142.393 66.064 L 123 68.396 123 72.013 L 123 75.630 142.085 73.233 C 152.582 71.916, 161.366 71.033, 161.606 71.272 C 161.845 71.512, 161.740 74.943, 161.373 78.898 C 160.901 83.974, 160.234 86.337, 159.102 86.936 C 158.221 87.402, 148.950 89.253, 138.500 91.049 C 128.050 92.846, 119.400 94.382, 119.277 94.464 C 119.155 94.546, 119.493 96.201, 120.029 98.144 L 121.004 101.675 137.252 98.822 C 146.188 97.253, 155.169 95.697, 157.210 95.364 L 160.920 94.757 160.463 103.129 C 160.211 107.733, 159.732 116.225, 159.397 122 L 158.788 132.500 145.894 141.247 C 138.802 146.057, 133 149.826, 133 149.621 C 133 149.416, 136.119 144.650, 139.932 139.029 C 143.745 133.409, 146.622 128.178, 146.325 127.405 C 146.029 126.632, 146.275 126, 146.872 126 C 147.643 126, 147.633 125.288, 146.837 123.541 C 145.927 121.544, 145.367 121.268, 143.858 122.076 C 142.330 122.894, 142 122.709, 142 121.035 C 142 119.131, 141.388 119, 132.500 119 L 123 119 123 122.960 L 123 126.919 131.035 127.210 L 139.070 127.500 127.565 144.388 L 116.060 161.276 118.108 164.152 L 120.155 167.027 138.328 154.693 C 148.322 147.910, 157.047 142.036, 157.716 141.642 C 160.460 140.022, 156.323 166.669, 153.288 170.166 C 151.999 171.651, 151.476 171.679, 148.467 170.422 L 145.091 169.011 144.073 172.699 C 143.512 174.728, 143.155 176.452, 143.277 176.531 C 143.400 176.610, 145.372 177.403, 147.660 178.293 C 151.427 179.759, 151.877 179.764, 152.422 178.343 C 152.881 177.146, 153.345 177.041, 154.382 177.902 C 155.445 178.784, 156.479 178.210, 159.133 175.265 C 163.284 170.659, 165.580 161.543, 166.529 145.900 L 167.172 135.299 181.224 129.112 C 188.952 125.709, 195.638 123.054, 196.082 123.213 C 196.525 123.371, 194.025 127.315, 190.526 131.978 C 187.026 136.640, 184.378 140.803, 184.641 141.228 C 184.903 141.652, 184.641 142, 184.059 142 C 183.455 142, 183 144.148, 183 147 C 183 151.039, 183.327 152, 184.700 152 C 185.987 152, 186.119 152.281, 185.243 153.157 C 184.367 154.033, 186.110 155.695, 192.422 160.003 C 199.795 165.034, 202.128 166.032, 212.629 168.649 C 223.879 171.453, 225.102 171.563, 236 170.763 C 242.325 170.298, 249.638 170.049, 252.251 170.209 C 257.303 170.519, 257.850 169.773, 256.436 164.500 C 255.917 162.563, 255.439 162.528, 241.247 163.393 C 226.987 164.262, 226.270 164.208, 214.571 161.397 C 205.484 159.214, 201.139 157.597, 196.775 154.776 C 191.306 151.242, 191 150.829, 191 146.993 C 191 143.460, 192.084 141.507, 199.472 131.721 C 206.557 122.338, 207.703 120.318, 206.472 119.390 C 205.662 118.779, 205.001 117.654, 205.002 116.890 C 205.004 115.811, 203.547 115.575, 198.502 115.835 C 194.425 116.046, 191.994 116.605, 191.985 117.335 C 191.974 118.173, 191.763 118.188, 191.235 117.389 C 190.737 116.636, 186.775 117.952, 178.932 121.478 L 167.364 126.679 167.714 115.589 C 168.095 103.542, 168.832 96, 169.627 96 C 169.904 96, 170.965 96.446, 171.984 96.992 C 173.586 97.849, 174.322 97.117, 177.405 91.603 C 179.682 87.532, 181.792 85.005, 183.236 84.621 C 187.825 83.398, 188.337 82.553, 186.564 79.124 C 184.990 76.079, 185.110 75.322, 190.531 54.242 C 193.606 42.284, 196.350 31.713, 196.628 30.750 C 196.998 29.472, 196.559 29, 195 29 C 193.396 29, 193.008 28.551, 193.439 27.192 C 193.936 25.627, 192.940 25.180, 186.033 23.863 C 180.472 22.804, 177.917 22.670, 177.605 23.421 C 177.307 24.141, 177.132 24.117, 177.079 23.348 C 177.022 22.511, 175.723 22.580, 172.335 23.600 C 169.769 24.372, 167.542 24.876, 167.386 24.719 C 167.229 24.563, 165.943 19.076, 164.527 12.527 C 163.111 5.977, 161.850 0.555, 161.726 0.477 C 161.602 0.398, 159.925 0.785, 158 1.337 M 58 30.337 C 56.075 30.888, 54.390 31.410, 54.255 31.497 C 54.121 31.584, 55.584 40.117, 57.505 50.459 C 59.427 60.800, 61 71.369, 61 73.946 C 61 79.874, 61.660 79.555, 30.784 88.532 C 7.166 95.398, 7.071 95.437, 7.669 97.963 C 8 99.358, 8.547 100.991, 8.885 101.592 C 9.295 102.320, 17.176 100.417, 32.500 95.890 C 45.150 92.154, 56.513 88.841, 57.750 88.529 C 59.871 87.994, 60 88.264, 59.996 93.231 C 59.993 96.129, 57.776 111.160, 55.068 126.634 C 50.991 149.940, 49.627 155.796, 47.125 160.753 L 44.104 166.737 47.905 168.231 L 51.707 169.724 54.940 163.168 C 57.676 157.619, 58.928 152.298, 63.082 128.556 C 66.138 111.093, 67.993 97.549, 67.996 92.684 C 67.998 88.386, 68.440 84.046, 68.978 83.041 C 69.516 82.036, 74.194 78.829, 79.373 75.915 C 86.382 71.971, 88.641 70.218, 88.208 69.058 C 87.714 67.738, 87.872 67.700, 89.243 68.815 C 90.626 69.938, 91.038 69.793, 92.086 67.815 C 92.760 66.542, 93.894 64.600, 94.605 63.500 C 95.767 61.705, 95.550 61.271, 92.500 59.274 L 89.101 57.048 86.944 60.885 C 85.387 63.657, 82.767 65.873, 77.514 68.862 C 73.513 71.138, 69.961 73, 69.620 73 C 69.279 73, 69 71.741, 69 70.202 C 69 67.585, 62.270 29.837, 61.742 29.492 C 61.609 29.405, 59.925 29.785, 58 30.337 M 172.661 31.186 C 168.870 32.228, 168.833 32.286, 169.661 35.870 C 170.123 37.867, 170.466 44.142, 170.425 49.814 C 170.341 61.385, 169.960 61.004, 178.173 57.572 C 181.671 56.111, 181.780 55.888, 184.733 44.099 C 186.989 35.093, 187.428 31.994, 186.496 31.637 C 183.431 30.461, 176.164 30.224, 172.661 31.186 M 173.385 67.208 C 170.413 68.166, 170.241 68.515, 169.655 74.793 C 169.317 78.412, 169.214 81.548, 169.427 81.761 C 169.640 81.973, 171.148 81.458, 172.778 80.615 C 175.063 79.433, 176.011 77.984, 176.916 74.291 C 177.562 71.656, 178.325 68.713, 178.613 67.750 C 179.197 65.790, 178.128 65.680, 173.385 67.208 M 26.942 127.572 C 14.116 142.703, 8.388 150.313, 5.300 156.324 C 0.345 165.971, -0.273 171.099, 3.321 172.737 C 5.540 173.748, 5.888 173.304, 11.213 162.647 C 16 153.069, 18.946 148.956, 32.142 133.427 C 40.589 123.487, 48.054 114.676, 48.732 113.847 C 49.746 112.606, 49.470 111.866, 47.174 109.667 L 44.385 106.994 26.942 127.572 M 71.613 121.855 C 71.363 122.760, 70.891 124.438, 70.564 125.585 C 70.066 127.334, 70.634 127.889, 74.089 129.030 C 77.784 130.249, 78.576 131.131, 81.765 137.576 L 85.322 144.764 88.911 143.277 C 90.885 142.459, 92.635 141.665, 92.800 141.512 C 92.965 141.359, 91.418 137.836, 89.363 133.682 C 86.045 126.977, 85.412 126.244, 83.718 127.151 C 82.111 128.011, 81.902 127.883, 82.393 126.336 C 82.864 124.850, 81.935 124.091, 77.521 122.355 C 72.593 120.417, 72.024 120.369, 71.613 121.855" stroke="none" fill="black" fill-rule="evenodd"/>
</svg>