<svg xmlns="http://www.w3.org/2000/svg" width="256" height="256" viewBox="0 0 256 256" version="1.1">
	<path d="M 133.675 17.965 L 120.850 35.888 106.675 40.361 C 98.879 42.821, 90.596 45.390, 88.269 46.070 C 84.416 47.195, 84.093 47.537, 84.654 49.903 C 85.842 54.912, 85.901 54.914, 99.726 50.495 C 107.001 48.170, 112.668 46.770, 112.321 47.384 C 108.148 54.753, 98.269 65.944, 81.304 82.520 L 60.813 102.539 62.579 106.244 L 64.346 109.949 71.582 105.955 C 78.002 102.411, 79.111 102.093, 81.409 103.141 C 84.584 104.587, 84.580 104.103, 81.614 126.553 C 79.585 141.903, 78.770 145.513, 76.166 150.671 L 73.104 156.737 77.074 158.297 L 81.044 159.856 83.962 154.076 C 86.449 149.148, 87.258 145.362, 89.448 128.398 C 90.860 117.454, 92.277 106.813, 92.596 104.750 C 93.107 101.444, 92.932 101, 91.119 101 C 89.849 101, 89.252 100.506, 89.559 99.707 C 89.879 98.872, 88.257 97.768, 84.976 96.589 L 79.898 94.762 91.470 83.775 C 100.132 75.550, 105.805 68.954, 114.032 57.544 L 125.022 42.302 132.393 40.160 C 137.609 38.645, 143.585 35.605, 152.828 29.767 L 165.890 21.517 163.950 18.508 C 162.883 16.854, 161.629 15.589, 161.163 15.697 C 160.698 15.806, 154.532 19.518, 147.461 23.947 C 135.794 31.255, 133 32.739, 133 31.628 C 133 31.423, 137.504 25.015, 143.009 17.388 L 153.018 3.522 150.759 1.783 C 149.516 0.827, 148.050 0.044, 147.500 0.043 C 146.950 0.042, 140.729 8.107, 133.675 17.965 M 16.830 52.774 C 14.774 54.130, 14.375 54.920, 15.097 56.208 C 15.771 57.413, 15.587 58.132, 14.440 58.774 C 13.058 59.547, 13.476 60.932, 17.589 69.212 L 22.332 78.759 25.916 77.275 C 27.887 76.458, 29.641 75.659, 29.813 75.498 C 29.985 75.338, 28.261 71.497, 25.981 66.963 C 23.445 61.919, 22.235 58.473, 22.862 58.085 C 23.506 57.687, 23.127 56.249, 21.846 54.226 C 20.723 52.451, 19.735 51.003, 19.652 51.007 C 19.568 51.010, 18.299 51.806, 16.830 52.774 M 131.500 71.328 C 118.850 74.628, 108.400 77.392, 108.277 77.470 C 108.155 77.548, 108.498 79.220, 109.040 81.184 L 110.027 84.756 126.763 80.346 C 157.046 72.366, 155.937 72.567, 161.048 74.119 L 165.596 75.500 161.402 114 C 157.787 147.182, 156.866 153.270, 154.737 158.074 C 152.869 162.288, 151.489 163.969, 149.081 164.966 C 147.066 165.801, 146.099 166.784, 146.448 167.643 C 146.752 168.389, 147.236 169.579, 147.525 170.286 C 148.729 173.236, 132.644 176.701, 95 181.601 C 74.925 184.214, 58.358 186.452, 58.186 186.574 C 58.013 186.696, 58.158 188.323, 58.508 190.190 L 59.144 193.584 96.322 188.776 L 133.500 183.968 155.125 176.951 C 167.018 173.091, 177.593 169.760, 178.625 169.548 C 181.151 169.028, 188 166.086, 188 165.521 C 188 165.272, 187.254 163.503, 186.342 161.590 L 184.683 158.112 181.631 159.691 C 178.549 161.284, 162.292 167, 160.841 167 C 160.410 167, 161.158 164.412, 162.504 161.250 C 164.586 156.357, 165.547 149.912, 168.958 118 C 171.162 97.375, 173.241 78.362, 173.577 75.750 C 174.133 71.421, 174.005 71, 172.125 71 C 170.855 71, 170.252 70.506, 170.556 69.714 C 170.903 68.810, 168.813 67.960, 163.525 66.855 C 158.291 65.762, 155.995 65.620, 155.985 66.391 C 155.974 67.182, 155.759 67.189, 155.235 66.414 C 154.733 65.673, 147.213 67.230, 131.500 71.328 M 126.750 105.398 L 116 106.296 116 110.207 C 116 112.358, 116.406 113.867, 116.903 113.560 C 117.399 113.253, 122.667 112.780, 128.609 112.509 C 136.611 112.143, 139.622 111.640, 140.223 110.567 C 140.731 109.659, 140.509 108.816, 139.628 108.309 C 138.855 107.864, 138.060 106.825, 137.861 106 C 137.551 104.712, 135.980 104.627, 126.750 105.398 M 4.101 116.279 C 2.267 119.149, 2.211 119.626, 3.590 120.661 C 4.949 121.680, 4.888 121.901, 3.092 122.471 C 1.159 123.084, 1.378 123.784, 7.022 135.045 C 12.738 146.446, 13 147.299, 13 154.485 L 13 162 17 162 L 21 162 21 152.983 C 21 144.033, 20.959 143.885, 15.412 132.824 C 10.793 123.615, 9.999 121.298, 10.832 119.470 C 11.684 117.599, 11.401 116.934, 9 115.158 L 6.160 113.058 4.101 116.279 M 117.998 128.250 L 118 132 127.171 132 C 134.005 132, 136.774 132.390, 138.035 133.532 C 139.573 134.924, 139.881 134.831, 141.399 132.514 C 142.882 130.251, 142.897 129.898, 141.535 129.375 C 140.691 129.051, 140 127.962, 140 126.955 C 140 125.311, 138.880 125.093, 128.998 124.812 L 117.996 124.500 117.998 128.250 M 34.388 155.254 C 29.111 167.194, 27.360 169.927, 14.304 186.598 C 6.437 196.643, -0 205.723, 0 206.776 C 0 207.829, 0.945 209.545, 2.099 210.590 C 4.176 212.469, 4.223 212.458, 6.594 209.495 C 7.912 207.848, 8.992 206.163, 8.995 205.752 C 9.001 204.894, 34.796 171.787, 36.113 170.947 C 37.003 170.380, 48.193 145.842, 47.747 145.436 C 47.611 145.312, 45.850 144.527, 43.834 143.691 L 40.169 142.173 34.388 155.254 M 113 150 L 113 154 126.300 154 C 134.266 154, 140.022 154.422, 140.651 155.051 C 141.386 155.786, 142.209 155.330, 143.386 153.533 C 144.879 151.255, 144.896 150.897, 143.535 150.375 C 142.691 150.051, 142 148.934, 142 147.893 C 142 146.123, 141.060 146, 127.500 146 L 113 146 113 150 M 98.738 211.697 C 84.865 228.912, 82.274 232.631, 83.285 233.877 C 84.285 235.109, 84.210 235.266, 82.863 234.762 C 81.540 234.267, 80.535 236.078, 77.609 244.237 C 75.619 249.785, 74.149 254.482, 74.341 254.674 C 74.533 254.867, 76.363 255.131, 78.407 255.262 L 82.123 255.500 85.864 245.428 C 89.398 235.914, 90.427 234.338, 104.474 216.928 C 112.651 206.793, 119.707 198.014, 120.153 197.420 C 120.636 196.776, 119.840 195.262, 118.185 193.677 L 115.406 191.015 98.738 211.697 M 157.149 215.234 L 155.082 218.499 158.791 220.673 C 165.741 224.747, 166.622 225.811, 170.914 235.309 L 175.207 244.811 178.853 243.301 C 180.859 242.470, 182.615 241.685, 182.755 241.557 C 182.895 241.429, 180.914 236.772, 178.353 231.208 C 174.149 222.077, 173.509 221.193, 171.772 222.122 C 170.082 223.026, 169.972 222.921, 170.863 221.255 C 171.712 219.670, 171.355 219.061, 168.689 217.540 C 166.935 216.540, 164.086 214.877, 162.358 213.846 L 159.215 211.970 157.149 215.234" stroke="none" fill="black" fill-rule="evenodd"/>
</svg>