<svg xmlns="http://www.w3.org/2000/svg" width="256" height="256" viewBox="0 0 256 256" version="1.1">
	<path d="M 100.587 2.179 C 99.143 4.241, 99.249 4.485, 102.568 6.740 C 104.639 8.148, 106.296 10.231, 106.616 11.830 C 107.114 14.320, 107.481 14.507, 111.181 14.154 C 115.064 13.784, 115.183 13.666, 114.602 10.760 C 114.271 9.105, 114 7.398, 114 6.969 C 114 6.539, 113.049 6.436, 111.887 6.740 C 110.044 7.222, 109.908 7.040, 110.826 5.326 C 111.711 3.672, 111.426 3.092, 109.035 1.680 C 105.184 -0.595, 102.416 -0.432, 100.587 2.179 M 140.584 33.142 C 124.422 39.660, 122.281 40.240, 92.584 46.140 C 75.488 49.537, 61.400 52.383, 61.277 52.464 C 61.155 52.546, 61.492 54.197, 62.026 56.133 C 62.897 59.285, 63.301 59.609, 65.888 59.230 L 68.779 58.806 69.476 75.153 C 70.111 90.064, 69.945 92.829, 67.587 106.635 C 66.164 114.959, 64.406 123.183, 63.679 124.911 L 62.358 128.053 60.432 125.924 L 58.505 123.796 51.503 131.314 C 45.193 138.089, 42.966 139.646, 29 147.053 C 20.475 151.574, 13.355 155.395, 13.178 155.542 C 13 155.690, 13.675 157.399, 14.678 159.340 L 16.500 162.869 33 154.022 C 46.701 146.676, 50.417 144.185, 54.906 139.338 C 57.879 136.127, 60.059 134.175, 59.750 135 C 59.441 135.825, 54.656 148.059, 49.117 162.187 C 40.209 184.904, 38.041 189.445, 30.367 201.451 C 19.631 218.249, 11.653 226, 5.096 226 C 1.030 226, 1 226.027, 0.999 229.750 L 0.997 233.500 6.499 233.157 C 10.743 232.893, 12 232.448, 12 231.207 C 12 229.994, 12.282 229.882, 13.153 230.753 C 14.024 231.624, 16.071 230.326, 21.514 225.455 C 27.110 220.446, 30.748 215.818, 37.784 204.752 C 45.771 192.191, 47.931 187.715, 55.985 167.029 C 61.010 154.120, 65.600 142.982, 66.183 142.279 C 66.767 141.576, 69.182 141, 71.550 141 C 75.007 141, 76.262 141.518, 77.922 143.629 C 79.732 145.929, 79.915 147.146, 79.385 153.379 C 79.044 157.397, 77.789 162.731, 76.505 165.620 L 74.230 170.739 77.555 172.325 L 80.879 173.910 83.389 169.420 C 86.489 163.872, 88.923 146.203, 86.774 144.839 C 86.073 144.394, 85.876 144.024, 86.337 144.015 C 86.797 144.007, 85.852 142.204, 84.238 140.009 L 81.303 136.017 86.937 130.259 C 90.036 127.091, 94.872 121.926, 97.685 118.780 C 102.427 113.475, 102.840 113.226, 103.372 115.347 L 103.946 117.634 123.484 114.114 C 141.561 110.856, 143.144 110.715, 144.656 112.227 C 146.167 113.738, 145.931 115.753, 141.496 139.180 C 137.916 158.092, 135.997 165.916, 133.915 170.095 L 131.128 175.690 134.554 177.324 L 137.981 178.958 140.125 174.729 C 141.304 172.403, 142.669 170.242, 143.158 169.927 C 143.781 169.524, 154.943 115.142, 154.995 112.250 C 154.998 112.112, 154.078 112, 152.950 112 C 151.300 112, 151.089 111.663, 151.870 110.267 C 152.672 108.836, 152.033 108.064, 148.195 105.822 C 144.765 103.818, 143.328 103.422, 142.699 104.305 C 142.113 105.127, 141.707 105.162, 141.396 104.417 C 141.089 103.680, 136.080 104.226, 125.722 106.125 C 117.350 107.660, 109.034 109.181, 107.241 109.505 L 103.982 110.094 108.990 102.206 L 113.998 94.318 124.721 91.026 C 133.137 88.441, 137.425 86.408, 144.654 81.574 L 153.865 75.414 151.835 72.208 C 150.654 70.344, 149.323 69.285, 148.653 69.678 C 148.019 70.050, 144.137 72.605, 140.027 75.357 C 132.842 80.169, 123.718 84.406, 121.869 83.790 C 121.382 83.627, 123.208 79.904, 125.928 75.516 C 128.647 71.128, 130.788 67.496, 130.686 67.445 C 130.584 67.394, 129.092 66.381, 127.372 65.195 L 124.243 63.037 116.165 75.858 L 108.087 88.680 101.514 90.459 C 95.946 91.966, 95.022 92.526, 95.470 94.119 C 95.762 95.154, 96.249 96.880, 96.553 97.955 C 97.014 99.586, 97.522 99.752, 99.610 98.958 C 101.529 98.229, 101.939 98.298, 101.364 99.253 C 92.774 113.530, 81.474 126.419, 75.167 129.134 C 72.784 130.161, 70.640 131, 70.404 131 C 70.167 131, 70.655 129.368, 71.489 127.372 C 72.323 125.377, 74.168 116.940, 75.589 108.622 C 77.980 94.639, 78.122 92.133, 77.483 75.351 C 76.830 58.210, 76.894 57.171, 78.646 56.661 C 79.665 56.364, 91.075 54.044, 104 51.506 C 124.992 47.383, 129.261 46.193, 144 40.352 C 153.075 36.756, 160.645 33.673, 160.822 33.501 C 161 33.329, 160.325 31.643, 159.322 29.754 L 157.500 26.320 140.584 33.142 M 222.917 67.416 C 222.688 67.645, 215.525 69.072, 207 70.587 C 198.475 72.101, 191.400 73.402, 191.277 73.477 C 191.155 73.551, 191.494 75.207, 192.032 77.155 L 193.010 80.698 202.688 78.865 C 208.011 77.857, 212.551 77.217, 212.776 77.443 C 213.002 77.668, 205.496 85.883, 196.097 95.697 C 181.011 111.450, 177.784 114.294, 168.569 119.958 C 159.722 125.395, 158.272 126.640, 159.065 128.121 C 159.579 129.082, 160 130.798, 160 131.934 C 160 133.666, 160.626 134, 163.867 134 C 167.718 134, 167.739 134.022, 168.740 139.083 C 169.585 143.356, 169.365 145.705, 167.362 153.833 C 164.886 163.880, 164.748 164.248, 161.259 170.009 L 159.135 173.518 162.462 175.699 L 165.790 177.880 169.249 172.190 C 171.353 168.731, 173.567 162.971, 174.897 157.500 C 176.100 152.550, 177.310 147.746, 177.586 146.825 C 177.933 145.666, 177.381 145.015, 175.794 144.711 L 173.500 144.272 175.858 144.136 C 177.769 144.026, 178.117 143.573, 177.692 141.750 C 177.403 140.512, 176.658 136.960, 176.035 133.856 C 175.060 128.999, 174.631 128.284, 172.951 128.723 C 169.094 129.732, 171.144 127.424, 177.721 123.355 C 182.729 120.256, 190.021 113.328, 206.616 95.900 L 228.813 72.591 226.657 69.851 C 224.518 67.134, 223.720 66.614, 222.917 67.416 M 207.750 118.346 L 188 120.410 188 123.999 L 188 127.588 206.874 125.654 C 232.122 123.067, 233.864 123.525, 231.209 132.058 C 228.635 140.330, 220.817 152.094, 213.929 158.061 L 207.899 163.285 210.584 166.088 L 213.270 168.891 219.762 163.195 C 228.298 155.707, 236.473 143.113, 239.618 132.606 C 240.928 128.229, 242 124.502, 242 124.324 C 242 124.146, 241.070 124, 239.933 124 C 238.396 124, 238.012 123.537, 238.437 122.199 C 238.895 120.756, 237.969 120.010, 233.782 118.449 C 230.908 117.377, 228.318 116.451, 228.028 116.391 C 227.738 116.331, 218.613 117.211, 207.750 118.346 M 13.593 121.919 C 13.354 122.788, 12.888 124.447, 12.558 125.605 C 12.006 127.540, 12.564 127.814, 19.473 128.995 C 23.606 129.702, 27.482 130.876, 28.085 131.603 C 28.979 132.680, 29.710 132.535, 32.024 130.824 C 34.724 128.828, 34.788 128.606, 33.306 126.344 C 32.074 124.463, 31.455 124.208, 30.351 125.124 C 29.252 126.035, 29.073 125.974, 29.509 124.838 C 29.937 123.721, 28.247 123.048, 22.045 121.866 C 14.763 120.478, 13.988 120.483, 13.593 121.919 M 118.750 132.792 L 111 133.084 111 136.792 L 110.999 140.500 120.049 140.332 C 130.156 140.144, 133.140 138.918, 130.525 136.028 C 129.686 135.101, 129 133.890, 129 133.338 C 129 132.785, 128.438 132.371, 127.750 132.417 C 127.063 132.463, 123.013 132.631, 118.750 132.792 M 185.481 167.814 C 176.823 181.941, 167.767 195.547, 165.355 198.049 L 160.971 202.598 163.780 205.289 L 166.588 207.980 171.660 202.740 C 174.758 199.539, 182.678 187.773, 192.017 172.500 C 200.424 158.750, 207.422 147.266, 207.568 146.980 C 207.714 146.695, 206.346 145.486, 204.528 144.294 L 201.223 142.128 185.481 167.814 M 109 151.931 L 109 155.863 118.575 156.181 C 126.382 156.441, 128.418 156.203, 129.600 154.893 C 130.869 153.488, 130.860 153.128, 129.525 152.021 C 128.686 151.325, 128 150.135, 128 149.378 C 128 148.304, 125.902 148, 118.500 148 L 109 148 109 151.931 M 114.250 165.407 L 103 166.314 103 170.216 C 103 172.362, 103.360 173.896, 103.800 173.624 C 104.240 173.352, 109.700 172.881, 115.932 172.577 C 127.119 172.033, 131.206 170.806, 129.042 168.642 C 128.469 168.069, 128 166.865, 128 165.967 C 128 165.068, 127.438 164.371, 126.750 164.417 C 126.063 164.463, 120.438 164.908, 114.250 165.407 M 127.917 180.401 C 127.688 180.622, 117.825 182.263, 106 184.047 C 94.175 185.831, 84.358 187.404, 84.186 187.543 C 84.013 187.682, 84.159 189.330, 84.511 191.205 L 85.150 194.614 99.825 192.308 C 107.896 191.040, 115.140 190.114, 115.922 190.251 C 116.705 190.388, 110.405 196.948, 101.922 204.829 C 90.416 215.520, 84.723 220.057, 79.500 222.696 C 75.650 224.642, 72.368 226.351, 72.207 226.493 C 72.046 226.636, 72.678 228.354, 73.611 230.311 L 75.308 233.869 82.588 230.185 C 88.458 227.214, 94.133 222.545, 111.876 206.087 L 133.883 185.675 131.691 182.893 C 129.526 180.144, 128.730 179.618, 127.917 180.401 M 194.162 182.772 L 192.129 185.627 211.717 200.563 C 229.772 214.331, 232.213 215.864, 242.903 220.145 C 255.105 225.033, 255.955 225.014, 255.985 219.854 C 255.999 217.409, 255.124 216.857, 244.466 212.592 C 232.980 207.996, 228.464 204.950, 197.348 180.811 C 196.585 180.220, 195.507 180.883, 194.162 182.772 M 127.581 200.752 C 126.664 202.675, 126.055 204.389, 126.228 204.561 C 126.400 204.733, 128.665 205.785, 131.260 206.897 C 135.400 208.672, 136.367 209.706, 139.136 215.322 L 142.293 221.724 146.077 220.238 L 149.861 218.751 146.259 211.473 C 143.879 206.662, 142.203 204.369, 141.317 204.708 C 140.464 205.036, 140.177 204.703, 140.527 203.791 C 140.912 202.787, 139.312 201.599, 135.162 199.808 L 129.248 197.257 127.581 200.752" stroke="none" fill="black" fill-rule="evenodd"/>
</svg>