<svg xmlns="http://www.w3.org/2000/svg" width="256" height="256" viewBox="0 0 256 256" version="1.1">
	<path d="M 213.507 14.931 C 204.721 23.143, 197.300 29.497, 197.016 29.051 C 196.732 28.605, 193.741 27.923, 190.368 27.536 L 184.236 26.831 176.927 17.911 L 169.619 8.991 166.852 11.642 C 163.689 14.672, 162.936 13.054, 173.414 25.749 C 176.667 29.690, 179.705 32.682, 180.164 32.398 C 180.624 32.114, 181 32.359, 181 32.941 C 181 33.523, 182.463 34.045, 184.250 34.100 C 192.836 34.363, 192.735 34.594, 178.036 48.306 L 164.308 61.112 165.313 64.879 L 166.319 68.646 177.909 66.839 C 184.284 65.845, 191.750 64.767, 194.500 64.443 L 199.500 63.853 196.309 66.677 C 169.291 90.581, 165.129 94.529, 166.017 95.417 C 166.558 95.958, 167 97.579, 167 99.019 L 167 101.638 174.134 100.786 C 178.058 100.318, 181.427 100.093, 181.621 100.288 C 181.815 100.482, 180.639 102.456, 179.008 104.675 C 177.376 106.893, 176.332 108.999, 176.687 109.354 C 177.043 109.709, 176.808 110, 176.167 110 C 175.525 110, 175 110.594, 175 111.319 C 175 112.045, 168.940 117.755, 161.534 124.008 C 153.074 131.151, 148.376 135.772, 148.896 136.439 C 149.352 137.022, 150.003 138.671, 150.344 140.102 L 150.964 142.705 161.732 140.861 C 167.654 139.847, 173.199 139.014, 174.053 139.009 C 175.193 139.002, 176.232 141.598, 177.955 148.750 C 181.670 164.172, 181.993 165.117, 183.304 164.365 C 183.962 163.988, 184.169 164.045, 183.764 164.493 C 183.359 164.940, 184.821 167.252, 187.014 169.631 C 189.756 172.606, 191 174.862, 191 176.863 C 191 178.462, 189.680 190.959, 188.066 204.635 C 184.881 231.635, 182.675 240, 178.742 240 C 177.044 240, 176.842 240.462, 177.375 243.125 C 177.719 244.844, 178 246.553, 178 246.924 C 178 247.295, 179.575 247.415, 181.500 247.190 C 183.760 246.926, 185 246.251, 185 245.284 C 185 244.420, 185.585 244.011, 186.382 244.317 C 187.332 244.681, 188.576 242.912, 190.352 238.674 C 192.457 233.648, 193.446 227.986, 195.670 208.233 C 197.173 194.887, 198.725 183.445, 199.119 182.808 C 199.656 181.939, 201.975 182.030, 208.385 183.171 C 214.465 184.254, 217.089 184.377, 217.468 183.597 C 217.845 182.819, 218.161 182.837, 218.552 183.656 C 218.923 184.432, 222.372 183.308, 229.054 180.232 C 238.817 175.738, 239.166 175.457, 247.502 165.412 L 256 155.173 255.986 144.837 C 255.979 139.151, 255.725 133.577, 255.422 132.449 C 254.928 130.611, 252.856 130.087, 235.454 127.394 C 222.511 125.392, 215.890 124.742, 215.597 125.445 C 215.309 126.138, 215.131 126.115, 215.079 125.379 C 215.003 124.302, 214.009 124.387, 202.845 126.427 C 200.270 126.897, 200.156 126.710, 199.058 120.206 C 196.752 106.552, 196.966 107.196, 194.911 107.734 C 193.860 108.008, 193 108.014, 193 107.747 C 193 107.479, 196.143 104.642, 199.985 101.442 C 206.296 96.185, 206.826 95.466, 205.485 93.983 C 204.668 93.081, 204 91.845, 204 91.237 C 204 90.630, 202.988 90.300, 201.750 90.505 C 195.513 91.536, 179.768 93.102, 179.394 92.728 C 179.159 92.492, 187.267 84.952, 197.411 75.971 L 215.856 59.642 213.678 56.889 C 212.480 55.374, 210.825 54.302, 210 54.506 C 205.677 55.575, 180.776 59.092, 179.809 58.770 C 179.188 58.563, 191.784 46.058, 207.801 30.982 C 235.191 5.198, 236.825 3.464, 235.305 1.785 C 232.132 -1.721, 229.850 -0.345, 213.507 14.931 M 61.793 50.876 C 38.585 59.315, 38.099 59.549, 38.678 61.998 C 39.004 63.374, 39.547 65.010, 39.885 65.633 C 40.299 66.396, 48.069 64.005, 63.707 58.299 L 86.914 49.833 92.462 51.446 L 98.011 53.059 97.464 58.279 C 97.164 61.151, 95.371 85.991, 93.480 113.480 C 90.121 162.297, 89.988 163.502, 87.770 165.226 C 85.339 167.116, 78.854 169.222, 61.788 173.664 C 51.343 176.383, 51.090 176.515, 51.673 178.976 C 52.842 183.917, 52.786 183.916, 69.500 179.384 C 78.300 176.998, 85.570 175.036, 85.656 175.023 C 85.742 175.010, 85.592 175.845, 85.322 176.878 C 85.052 177.910, 82.863 180.230, 80.457 182.032 L 76.084 185.309 78.139 188.196 C 80.376 191.336, 79.926 191.448, 86.500 186.113 C 88.150 184.774, 89.369 183.245, 89.209 182.716 C 89.049 182.187, 89.563 182.002, 90.352 182.305 C 91.395 182.705, 92.516 180.850, 94.469 175.496 C 96.789 169.136, 97.746 167.752, 101.521 165.296 L 105.890 162.454 103.855 159.240 C 102.278 156.749, 101.444 156.227, 100.148 156.921 C 98.626 157.735, 98.810 153.077, 102.187 105.158 C 104.229 76.196, 105.922 51.712, 105.949 50.750 C 105.981 49.659, 105.259 49, 104.031 49 C 102.863 49, 102.259 48.490, 102.544 47.745 C 102.870 46.897, 100.434 45.803, 95.013 44.365 C 89.631 42.937, 86.995 42.610, 86.985 43.370 C 86.973 44.203, 86.776 44.205, 86.235 43.378 C 85.730 42.607, 78.074 44.956, 61.793 50.876 M 13.159 75.218 L 11.103 78.466 15.484 81.193 C 20.306 84.194, 20.313 84.218, 21.458 100 C 21.937 106.611, 21.065 112.251, 14.102 147.578 C 7.547 180.834, 5.674 188.703, 3.101 193.800 C -0.907 201.740, -0.975 205.194, 2.849 206.637 C 5.686 207.708, 5.713 207.681, 9.805 199.429 C 13.628 191.720, 14.473 188.296, 22.006 149.967 L 30.100 108.788 29.050 95.694 C 28.472 88.493, 28 82.240, 28 81.800 C 28 81.360, 27.277 81, 26.393 81 C 25.472 81, 25.002 80.436, 25.293 79.678 C 25.572 78.951, 25.058 77.913, 24.150 77.370 C 23.243 76.828, 20.861 75.391, 18.858 74.177 L 15.215 71.970 13.159 75.218 M 184.566 99.898 C 183.184 100.439, 182.982 100.871, 183.860 101.414 C 184.535 101.831, 185.672 101.687, 186.386 101.095 C 187.100 100.502, 187.935 100.268, 188.242 100.575 C 188.549 100.882, 189.096 100.653, 189.459 100.067 C 190.211 98.849, 187.485 98.755, 184.566 99.898 M 62.250 110.294 L 51 111.272 50.999 114.886 L 50.999 118.500 62.499 117.594 L 74 116.688 74 112.844 C 74 110.730, 73.888 109.071, 73.750 109.159 C 73.612 109.246, 68.438 109.757, 62.250 110.294 M 185.750 113.522 C 183.245 115.692, 183 116.520, 183 122.818 L 183 129.731 187.040 128.993 C 189.261 128.586, 191.301 128.033, 191.571 127.762 C 192.177 127.156, 189.954 112.764, 189.109 111.820 C 188.774 111.445, 187.262 112.211, 185.750 113.522 M 168.521 128.136 L 162.541 133.253 167.021 132.554 C 174.845 131.331, 175 131.222, 175 126.933 C 175 124.770, 174.887 123.004, 174.750 123.009 C 174.613 123.014, 171.809 125.321, 168.521 128.136 M 206.389 133.173 L 201.278 134.108 202.190 138.804 C 202.829 142.096, 202.605 147.792, 201.442 157.855 C 200.044 169.942, 199.997 172.408, 201.141 173.458 C 201.888 174.144, 205.673 175.247, 209.551 175.908 L 216.602 177.110 225.723 172.805 C 234.449 168.686, 235.213 168.055, 243.371 158.219 L 251.898 147.939 251.309 142.719 C 250.985 139.849, 250.657 137.412, 250.581 137.304 C 250.172 136.729, 217.725 132.018, 214.870 132.119 C 213.016 132.184, 209.200 132.658, 206.389 133.173 M 53.998 140.250 L 54 144 63.500 144 C 70.960 144, 73 144.300, 73 145.395 C 73 146.288, 74.412 146.925, 76.921 147.164 C 80.563 147.511, 80.884 147.331, 81.421 144.644 C 82.283 140.337, 82.179 140, 80 140 C 78.900 140, 78 139.351, 78 138.559 C 78 137.401, 75.639 137.057, 65.998 136.809 L 53.996 136.500 53.998 140.250 M 185.750 136.689 C 183.525 137.271, 183.511 137.069, 186.631 149.780 C 188.108 155.797, 190.082 161.365, 191.131 162.472 C 192.991 164.435, 193 164.435, 193.031 162.472 C 193.048 161.387, 193.499 157.130, 194.034 153.010 C 194.568 148.891, 194.721 143.379, 194.374 140.760 C 193.769 136.198, 193.613 136.005, 190.621 136.116 C 188.905 136.180, 186.713 136.438, 185.750 136.689 M 148.500 192.004 C 121.620 217.010, 118.647 219.467, 107.833 225.632 L 96.167 232.282 97.744 235.589 L 99.321 238.896 103.410 236.524 C 105.660 235.220, 111.641 231.756, 116.703 228.826 C 124.311 224.423, 130.852 218.915, 154.443 197.045 L 182.980 170.589 180.303 167.795 C 178.831 166.258, 177.598 165.006, 177.563 165.013 C 177.528 165.021, 164.450 177.166, 148.500 192.004" stroke="none" fill="black" fill-rule="evenodd"/>
</svg>