<svg xmlns="http://www.w3.org/2000/svg" width="256" height="256" viewBox="0 0 256 256" version="1.1">
	<path d="M 181 1 C 181 1.550, 180.325 2, 179.500 2 C 178.532 2, 177.997 2.975, 177.993 4.750 C 177.989 6.263, 177.699 10.537, 177.348 14.250 L 176.711 21 180.855 21 L 185 21 185.044 16.750 C 185.068 14.412, 185.465 10.546, 185.926 8.159 C 187.055 2.316, 186.333 0, 183.383 0 C 182.073 0, 181 0.450, 181 1 M 202.500 19.988 C 188.728 27.929, 186.151 28.914, 170.675 32.154 C 155.073 35.421, 155.068 35.423, 155.669 37.961 C 156.820 42.822, 156.723 42.817, 174.500 39.008 C 189.692 35.754, 192.537 34.806, 201.250 30.097 C 206.613 27.199, 210.981 24.529, 210.958 24.164 C 210.935 23.799, 210.148 22.061, 209.208 20.303 L 207.500 17.105 202.500 19.988 M 166.035 45.951 C 164.066 48.716, 164.050 48.931, 165.727 49.907 C 167.309 50.828, 167.246 50.942, 165.143 50.970 C 163.686 50.988, 162.962 51.477, 163.247 52.250 C 163.501 52.938, 164.477 55.838, 165.416 58.695 C 166.709 62.626, 167.502 63.745, 168.677 63.294 C 169.879 62.832, 170.082 63.166, 169.574 64.767 C 169.093 66.281, 169.398 66.932, 170.708 67.191 C 171.985 67.443, 170.031 69.406, 163.907 74.022 C 157.348 78.967, 152.794 81.443, 144.665 84.485 C 135.814 87.798, 134.109 88.769, 134.575 90.235 C 135.223 92.277, 135.009 92.334, 131.601 91.039 C 129.258 90.148, 128.999 90.346, 128.063 93.732 C 127.508 95.743, 127.155 97.448, 127.277 97.521 C 127.400 97.595, 128.908 98.214, 130.628 98.898 C 135.056 100.658, 135.551 105.511, 132.452 116.774 C 131.146 121.524, 130.172 125.458, 130.288 125.517 C 130.405 125.577, 132.182 126.116, 134.238 126.715 L 137.975 127.805 139.063 123.653 C 139.661 121.369, 140.812 117.178, 141.620 114.340 C 142.814 110.147, 142.878 107.966, 141.962 102.705 C 140.981 97.071, 140.586 96.296, 138.917 96.732 C 137.863 97.008, 137 96.836, 137 96.350 C 137 95.586, 153.995 88.629, 157.894 87.797 C 158.727 87.620, 159.627 88.740, 160.129 90.581 L 160.970 93.662 185.735 88.833 C 199.356 86.177, 212.469 84.003, 214.876 84.002 L 219.251 84 206.376 94.631 C 186.960 110.662, 187.117 110.554, 185.016 109.242 C 183.565 108.336, 182.860 108.497, 181.449 110.056 C 180.482 111.125, 180.045 112, 180.480 112 C 181.837 112, 176.708 115.621, 172 117.985 C 169.525 119.229, 167.354 120.374, 167.176 120.530 C 166.998 120.686, 167.572 122.206, 168.452 123.907 L 170.051 127 166.526 127 C 163.084 127, 163 127.094, 163 130.969 C 163 133.682, 163.395 134.815, 164.250 134.552 C 164.938 134.340, 168.029 133.907, 171.119 133.590 L 176.738 133.013 177.254 136.757 C 178.112 142.987, 181.089 152.063, 182.075 151.454 C 183.357 150.661, 183.496 149.175, 178.523 189.342 C 174.362 222.948, 173.728 226.519, 169.539 239.933 C 167.061 247.871, 165.181 254.514, 165.362 254.695 C 165.543 254.876, 167.395 255.131, 169.479 255.262 L 173.268 255.500 177.523 241.860 C 181.404 229.419, 182.153 225.148, 186.051 193.277 C 189.277 166.902, 190.653 158.333, 191.663 158.333 C 192.398 158.333, 193 158.596, 192.999 158.917 C 192.999 159.237, 195.249 159.344, 197.999 159.153 C 200.750 158.963, 203 158.325, 203 157.737 C 203 157.148, 203.296 156.963, 203.658 157.324 C 204.020 157.686, 206.157 156.486, 208.408 154.658 C 210.659 152.830, 213.295 150.899, 214.267 150.368 C 215.238 149.836, 218.488 145.385, 221.488 140.474 C 226.013 133.069, 226.684 131.403, 225.427 130.699 C 224.587 130.229, 224.151 129.101, 224.447 128.165 C 224.885 126.786, 223.562 126.102, 217.170 124.407 C 210.517 122.642, 208.202 122.468, 201.583 123.238 C 197.308 123.736, 193.668 123.998, 193.494 123.822 C 193.320 123.645, 192.880 121.900, 192.514 119.945 L 191.850 116.389 211.893 99.988 C 229.974 85.192, 231.792 83.428, 230.468 81.964 C 229.661 81.072, 229 79.895, 229 79.347 C 229 78.799, 224.841 77.921, 219.757 77.395 C 210.857 76.474, 209.603 76.617, 186.007 81.218 C 172.528 83.846, 161.061 85.997, 160.525 85.998 C 159.463 86, 198.837 56.564, 205.748 52.189 C 208.085 50.710, 209.995 49.275, 209.993 49 C 209.991 48.725, 208.980 47.253, 207.745 45.728 L 205.500 42.956 191.430 52.368 C 181.171 59.231, 176.942 61.547, 175.817 60.918 C 173.549 59.648, 171.385 51.215, 172.761 49.011 C 173.654 47.582, 173.332 46.882, 170.984 45.146 L 168.117 43.027 166.035 45.951 M 92.500 52.329 C 80.400 55.053, 70.400 57.357, 70.277 57.448 C 70.155 57.538, 70.495 59.210, 71.035 61.163 L 72.015 64.714 93.257 59.876 C 104.941 57.215, 115.746 55.029, 117.269 55.019 C 119.733 55.002, 116.469 58.925, 87.661 90.592 C 56.429 124.922, 54.607 126.723, 36.219 141.428 C 21.053 153.555, 15.402 157.453, 8.578 160.494 C 3.860 162.596, -0 164.455, -0 164.624 C -0 164.794, 0.732 166.467, 1.627 168.343 L 3.253 171.754 11.828 167.792 C 16.545 165.613, 20.875 163.259, 21.452 162.562 C 22.258 161.587, 42.119 145.551, 49.711 139.746 C 51.874 138.092, 58.062 140.879, 59.148 143.995 C 60.077 146.660, 60.273 146.732, 63.809 145.701 C 65.839 145.109, 67.600 144.572, 67.723 144.506 C 67.845 144.441, 67.492 142.745, 66.938 140.738 C 66.222 138.145, 65.503 137.253, 64.454 137.656 C 63.420 138.053, 63.158 137.752, 63.580 136.653 C 64.004 135.548, 63.415 134.891, 61.591 134.433 C 58.405 133.634, 58.398 133.445, 61.451 130.702 C 62.799 129.491, 78.986 111.860, 97.423 91.522 C 119.127 67.579, 130.601 54.201, 129.972 53.572 C 129.437 53.037, 129 51.864, 129 50.965 C 129 49.720, 127.453 49.099, 122.500 48.359 C 117.991 47.685, 115.995 47.711, 115.985 48.444 C 115.974 49.180, 115.746 49.178, 115.235 48.437 C 114.738 47.719, 107.380 48.978, 92.500 52.329 M 84.591 124.926 C 84.353 125.792, 83.868 127.513, 83.512 128.750 C 82.996 130.545, 83.267 131, 84.851 131 C 92.256 131, 91.839 135.542, 83.558 145.080 L 77.117 152.500 79.714 155.217 L 82.311 157.934 85.906 154.794 C 87.882 153.068, 92.314 149.176, 95.754 146.146 L 102.008 140.638 100.004 138.504 C 98.658 137.071, 98 134.998, 98 132.186 C 98 128.689, 97.676 128, 96.031 128 C 94.830 128, 94.257 127.495, 94.560 126.703 C 94.900 125.818, 93.468 125.081, 90.041 124.379 C 85.755 123.501, 84.960 123.581, 84.591 124.926 M 176 125 C 174.718 125.828, 174.754 125.972, 176.250 125.985 C 177.213 125.993, 178 125.550, 178 125 C 178 123.780, 177.887 123.780, 176 125 M 140.472 141.311 C 141.067 152.417, 140.919 155.259, 139.579 158.465 C 138.696 160.578, 138.092 162.379, 138.237 162.466 C 138.382 162.553, 140.147 163.105, 142.160 163.691 L 145.821 164.758 147.519 160.310 C 148.968 156.516, 149.112 153.816, 148.496 141.931 L 147.775 128 143.767 128 L 139.759 128 140.472 141.311 M 197.250 130.666 C 195.463 130.919, 193.965 131.211, 193.923 131.313 C 193.880 131.416, 193.290 135.657, 192.611 140.738 C 191.215 151.190, 191.535 152, 197.059 152 C 202.046 152, 207.989 147.149, 213.015 138.975 C 216.499 133.311, 216.768 132.450, 215.309 131.633 C 213.427 130.580, 202.121 129.974, 197.250 130.666" stroke="none" fill="black" fill-rule="evenodd"/>
</svg>