<svg xmlns="http://www.w3.org/2000/svg" width="256" height="256" viewBox="0 0 256 256" version="1.1">
	<path d="M 82 1.418 C 82 2.198, 81.750 3.487, 81.445 4.282 C 81.064 5.276, 81.792 5.908, 83.774 6.305 L 86.657 6.881 85.878 13.347 C 85.208 18.916, 82.996 24.020, 69.937 50.127 C 54.844 80.299, 54.700 80.537, 39.196 100.970 C 30.628 112.262, 23.146 121.818, 22.569 122.207 C 16.643 126.202, 0.073 139.760, 0.041 140.639 C 0.019 141.266, 0.788 142.726, 1.750 143.883 C 3.495 145.982, 3.533 145.961, 14.888 136.994 C 21.151 132.047, 26.592 128, 26.980 128 C 28.364 128, 63.991 80.063, 66.677 74.586 C 69.162 69.520, 71 67.532, 71 69.912 C 71 70.413, 78.215 67.931, 87.034 64.395 C 99.735 59.303, 103.467 58.179, 104.985 58.992 C 106.659 59.888, 107.030 59.550, 107.923 56.315 C 108.486 54.279, 108.845 52.566, 108.723 52.509 C 104.248 50.426, 103.087 50.198, 102.566 51.302 C 102.149 52.184, 101.856 52.199, 101.452 51.355 C 101.084 50.587, 96.558 51.956, 87.702 55.514 C 80.441 58.431, 74.361 60.682, 74.191 60.516 C 74.021 60.351, 78.138 51.713, 83.339 41.322 C 92.164 23.690, 92.869 21.829, 93.895 13.464 C 95.277 2.194, 95.344 3, 93.031 3 C 91.692 3, 91.247 2.520, 91.638 1.500 C 92.104 0.287, 91.236 0, 87.107 0 C 83.365 0, 82 0.379, 82 1.418 M 139.523 32.473 C 131.535 48.035, 125 61.028, 125 61.347 C 125 61.666, 120.192 68.526, 114.315 76.591 C 105.755 88.338, 101.993 92.565, 95.400 97.842 L 87.169 104.429 89.158 107.223 L 91.148 110.016 97.100 105.258 C 100.374 102.641, 104.203 99.764, 105.609 98.864 C 108.906 96.753, 132.107 64.981, 131.302 63.679 C 130.966 63.136, 131.189 62.999, 131.798 63.375 C 132.428 63.765, 133.518 62.890, 134.327 61.346 C 135.671 58.780, 135.784 58.744, 136.401 60.689 C 137.038 62.694, 137.406 62.634, 151.092 58.298 C 162.782 54.594, 165.616 54.019, 168.035 54.862 C 170.816 55.832, 170.983 55.720, 171.943 52.244 C 172.495 50.247, 172.845 48.559, 172.723 48.494 C 172.600 48.428, 170.834 47.889, 168.797 47.296 C 166.068 46.500, 164.971 46.516, 164.626 47.358 C 164.283 48.194, 164.137 48.197, 164.079 47.369 C 164.030 46.665, 159.384 47.701, 151.750 50.119 C 145.012 52.254, 139.145 54, 138.712 54 C 138.278 54, 143.341 43.494, 149.964 30.652 L 162.004 7.305 158.024 5.742 L 154.045 4.179 139.523 32.473 M 140.087 76.709 C 138.683 79.790, 138.710 80, 140.500 80 C 142.201 80, 142.452 81.143, 141.060 82.550 C 140.470 83.146, 141.941 84.701, 145.010 86.725 L 149.900 89.949 151.890 87.155 L 153.880 84.360 150.858 82.575 C 148.534 81.202, 147.963 80.283, 148.387 78.593 C 148.857 76.721, 148.366 76.244, 145.056 75.360 C 141.454 74.399, 141.095 74.496, 140.087 76.709 M 96.500 80 C 89.729 84.507, 87.063 84.893, 82.949 81.964 L 80.089 79.927 78.569 82.866 C 77.235 85.446, 77.230 85.874, 78.525 86.371 C 79.336 86.682, 79.999 87.964, 79.998 89.219 C 79.996 91.408, 80.277 91.487, 86.998 91.168 C 90.849 90.985, 94 90.396, 94 89.859 C 94 89.322, 94.368 89.110, 94.818 89.388 C 95.269 89.666, 98.165 88.214, 101.256 86.162 L 106.875 82.431 104.839 79.215 C 103.720 77.447, 102.735 76.001, 102.652 76.003 C 102.568 76.005, 99.800 77.804, 96.500 80 M 95.500 114.355 C 85.050 115.973, 76.358 117.409, 76.186 117.546 C 76.013 117.683, 76.159 119.332, 76.512 121.210 L 77.152 124.624 95.706 121.705 C 108.529 119.687, 115.163 119.050, 117.181 119.643 C 120.057 120.487, 119.826 120.728, 102.086 135.440 C 90.734 144.853, 84.376 150.771, 84.897 151.440 C 85.352 152.023, 86.008 153.690, 86.355 155.145 C 86.959 157.681, 87.157 157.752, 91.125 156.861 C 93.401 156.349, 95.425 156.092, 95.622 156.289 C 95.819 156.486, 88.373 162.194, 79.076 168.974 C 65.671 178.750, 62.339 181.633, 62.983 182.901 C 63.429 183.780, 64.178 185.447, 64.647 186.604 C 65.499 188.706, 65.512 188.705, 82.480 184.918 C 91.820 182.833, 99.515 181.211, 99.581 181.314 C 99.647 181.416, 100.467 184.650, 101.402 188.500 C 104.656 201.894, 105.066 203.077, 106.201 202.376 C 106.810 201.999, 107.036 202.134, 106.701 202.674 C 106.367 203.215, 107.447 205.300, 109.102 207.307 L 112.110 210.957 111.412 221.996 C 110.543 235.723, 109.642 234.912, 105.040 216.261 C 103.220 208.885, 101.353 203.282, 100.824 203.609 C 100.301 203.932, 99.104 203.499, 98.162 202.647 C 96.586 201.220, 94.645 202.638, 73.528 220.640 C 53.060 238.088, 49.421 240.773, 39.553 245.705 C 33.474 248.743, 28.351 251.364, 28.169 251.529 C 27.987 251.694, 28.340 252.767, 28.954 253.914 C 30.770 257.306, 35.887 256.587, 45.770 251.552 C 52.597 248.073, 58.968 243.280, 75 229.562 L 95.500 212.022 97.795 221.152 C 99.637 228.478, 101.108 231.738, 105.236 237.651 C 108.699 242.610, 110.711 244.689, 111.390 244.010 C 111.946 243.454, 113.596 243, 115.058 243 C 117.576 243, 117.749 242.679, 118.358 236.853 C 118.711 233.473, 119 228.298, 119 225.353 C 119 218.970, 119.141 218.935, 128.806 222.920 C 133.707 224.941, 136.034 225.480, 136.364 224.670 C 136.690 223.872, 136.867 223.855, 136.921 224.615 C 136.974 225.367, 139.778 225.054, 145.526 223.655 C 152 222.078, 153.920 221.234, 153.503 220.148 C 153.093 219.078, 153.278 218.986, 154.238 219.783 C 155.210 220.589, 157.955 218.669, 165.511 211.900 C 171.005 206.978, 175.388 202.512, 175.250 201.975 C 175.113 201.439, 175.397 201, 175.883 201 C 177.335 201, 178.404 185.868, 177.012 185.008 C 176.362 184.605, 175.836 183.877, 175.843 183.388 C 175.851 182.900, 173.307 180.397, 170.189 177.827 C 166.006 174.378, 164.190 173.427, 163.260 174.199 C 162.344 174.960, 162 174.843, 162 173.773 C 162 172.604, 159.684 172.162, 150.750 171.627 C 124.050 170.029, 123 169.881, 123 167.713 C 123 166.618, 121.637 161.304, 119.970 155.904 C 117.680 148.482, 116.588 146.221, 115.496 146.640 C 114.701 146.945, 113.334 146.476, 112.456 145.599 C 111.174 144.316, 110.439 144.230, 108.704 145.158 C 105.999 146.606, 99.863 148.031, 100.455 147.074 C 100.697 146.682, 107.883 140.566, 116.424 133.483 C 129.981 122.240, 131.782 120.408, 130.607 119.053 C 129.867 118.199, 129.434 117.030, 129.645 116.455 C 129.857 115.881, 126.873 114.481, 123.015 113.345 C 118.437 111.997, 115.995 111.665, 115.985 112.390 C 115.974 113.143, 115.733 113.164, 115.235 112.457 C 114.737 111.751, 108.365 112.364, 95.500 114.355 M 108.556 163.051 C 108.166 167.522, 107.994 171.297, 108.173 171.440 C 109.065 172.148, 114.998 169.780, 114.985 168.721 C 114.955 166.226, 111.216 155.572, 110.258 155.253 C 109.691 155.064, 108.961 158.409, 108.556 163.051 M 89.417 170.092 C 83.413 174.543, 79.400 177.946, 80.500 177.656 C 81.600 177.366, 86.389 176.342, 91.141 175.381 L 99.783 173.635 100.266 168.067 C 100.531 165.005, 100.655 162.388, 100.541 162.250 C 100.427 162.113, 95.421 165.642, 89.417 170.092 M 121.977 180.750 C 121.965 182.813, 121.520 190.095, 120.988 196.933 C 119.846 211.625, 119.740 211.405, 129.901 215.392 L 136.765 218.085 143.845 216.292 C 150.232 214.675, 151.798 213.730, 159.862 206.626 C 168.668 198.869, 168.811 198.670, 169.494 193.201 C 170.249 187.163, 170.685 187.910, 162.884 181.887 C 159.716 179.441, 158.414 179.201, 142.500 178.124 C 119.957 176.598, 122.004 176.336, 121.977 180.750 M 110.250 178.706 C 107.499 179.236, 107.500 179.349, 110.348 190.500 L 112.646 199.500 113.323 191.599 C 114.197 181.403, 114.178 177.968, 113.250 178.136 C 112.838 178.211, 111.487 178.467, 110.250 178.706" stroke="none" fill="black" fill-rule="evenodd"/>
</svg>