<svg xmlns="http://www.w3.org/2000/svg" width="256" height="256" viewBox="0 0 256 256" version="1.1">
	<path d="M 105 1 C 105 1.550, 104.260 2, 103.355 2 C 101.929 2, 101.795 2.894, 102.348 8.750 C 102.699 12.463, 102.989 16.512, 102.993 17.750 C 102.999 19.709, 103.520 20, 107.024 20 L 111.048 20 110.583 11.250 C 110.327 6.438, 110.091 1.938, 110.059 1.250 C 109.990 -0.222, 105 -0.469, 105 1 M 124 21.487 C 115.726 26.212, 112.500 27.386, 99 30.587 C 90.475 32.608, 83.400 34.341, 83.277 34.437 C 83.155 34.534, 83.494 36.204, 84.031 38.149 L 85.007 41.685 101.741 37.677 C 110.944 35.472, 119.011 33.132, 119.667 32.475 C 120.324 31.819, 124.683 29.362, 129.354 27.016 L 137.848 22.749 136.239 19.374 C 135.354 17.518, 134.375 16.014, 134.065 16.031 C 133.754 16.048, 129.225 18.504, 124 21.487 M 19.533 59.257 L -0.205 86.373 0.898 90.055 L 2.001 93.736 11.751 91.986 C 17.113 91.024, 21.582 90.303, 21.682 90.383 C 21.781 90.464, 17.208 97.907, 11.518 106.923 C 2.605 121.048, 1.369 123.512, 2.587 124.730 C 3.364 125.507, 4 126.941, 4 127.917 C 4 129.588, 4.567 129.612, 13.750 128.324 C 19.113 127.572, 24.400 127.061, 25.500 127.187 C 26.600 127.313, 28.729 126.602, 30.230 125.606 C 32.514 124.092, 32.788 123.472, 31.901 121.815 C 30.891 119.928, 30.750 119.916, 28.920 121.572 C 27.088 123.230, 27 123.219, 27 121.334 C 27 119.523, 26.564 119.421, 21.750 120.106 C 11.099 121.623, 11.016 122.742, 22.953 103.893 C 33.583 87.108, 33.751 86.751, 31.893 84.893 C 30.852 83.852, 30 82.609, 30 82.132 C 30 81.654, 25.613 82.051, 20.250 83.013 C 14.887 83.976, 10.416 84.695, 10.312 84.611 C 10.209 84.527, 17.972 73.671, 27.562 60.486 C 37.153 47.301, 45 36.482, 45 36.445 C 45 36.407, 43.711 35.423, 42.136 34.259 L 39.272 32.141 19.533 59.257 M 96.101 43.279 C 94.195 46.261, 94.166 46.593, 95.712 47.750 C 97.211 48.872, 97.147 49, 95.084 49 C 93.666 49, 92.963 49.479, 93.247 50.250 C 93.501 50.938, 94.477 53.838, 95.416 56.695 C 96.709 60.626, 97.502 61.745, 98.677 61.294 C 99.893 60.827, 100.082 61.166, 99.548 62.849 C 99.022 64.506, 99.278 65, 100.663 65 C 104.358 65, 85.140 77.630, 75.543 81.509 C 67.570 84.731, 66.079 85.673, 66.559 87.187 C 67.061 88.766, 66.806 88.877, 64.604 88.040 C 62.258 87.148, 61.999 87.344, 61.063 90.732 C 60.508 92.743, 60.155 94.448, 60.277 94.521 C 60.400 94.595, 61.891 95.207, 63.591 95.883 C 68.059 97.658, 69.313 103.713, 67.431 114.436 C 66.665 118.801, 66.142 122.429, 66.269 122.498 C 66.801 122.790, 74 124.799, 74.001 124.656 C 74.002 124.570, 74.677 120.675, 75.500 116 C 76.323 111.325, 76.998 107.419, 76.999 107.320 C 76.999 107.220, 75.987 106.944, 74.750 106.706 L 72.500 106.272 74.750 106.136 C 77.430 105.974, 77.388 106.455, 75.408 98.573 C 73.984 92.904, 73.588 92.291, 71.658 92.765 C 67.636 93.753, 70.467 92.199, 79.475 88.476 C 84.411 86.436, 88.911 84.207, 89.475 83.522 C 90.817 81.892, 127.109 55.322, 133.248 51.475 C 135.860 49.839, 137.995 48.275, 137.993 48 C 137.991 47.725, 136.980 46.267, 135.745 44.760 L 133.500 42.020 120.262 50.483 C 112.982 55.138, 106.425 58.716, 105.691 58.435 C 104.957 58.153, 103.673 55.783, 102.836 53.167 C 101.555 49.160, 101.526 48.093, 102.656 46.392 C 103.858 44.582, 103.694 44.150, 101.078 42.216 L 98.160 40.058 96.101 43.279 M 119.500 76.761 C 104.650 79.830, 92.400 82.403, 92.277 82.477 C 92.155 82.552, 92.498 84.221, 93.041 86.188 L 94.029 89.763 120.264 84.344 C 136.796 80.930, 148.337 79.032, 151.467 79.213 L 156.435 79.500 142.181 92.450 C 126.628 106.581, 120.702 110.989, 117.250 110.996 C 115.943 110.998, 115 111.614, 115 112.464 C 115 113.269, 113.436 114.990, 111.525 116.289 C 108.892 118.078, 108.331 118.931, 109.208 119.808 C 110.913 121.513, 109.846 122.057, 103.510 122.711 C 97.813 123.299, 97.810 123.301, 98.405 126.275 C 98.732 127.911, 99 129.576, 99 129.974 C 99 130.372, 101.588 130.324, 104.750 129.867 C 107.912 129.411, 111.902 128.842, 113.616 128.603 L 116.733 128.169 117.376 134.335 C 117.730 137.726, 118.441 140.642, 118.955 140.815 C 120.029 141.177, 119.984 141.927, 115.990 191.050 C 113.083 226.801, 112.931 227.893, 109.010 240.967 C 106.805 248.319, 105.156 254.490, 105.346 254.679 C 105.536 254.869, 107.383 255.131, 109.452 255.262 L 113.214 255.500 117.013 242.884 C 120.692 230.666, 120.909 229.077, 123.899 192.441 C 125.626 171.289, 127.456 154.148, 128.052 153.557 C 128.804 152.812, 128.947 152.950, 128.538 154.026 C 127.791 155.992, 136.538 159.582, 137.440 157.680 C 137.863 156.788, 138.141 156.800, 138.576 157.728 C 139.868 160.482, 148.369 154.395, 156.776 144.698 C 163.853 136.535, 165.155 134.458, 166.007 129.961 C 167.236 123.483, 167.280 124, 165.500 124 C 164.675 124, 164 123.185, 164 122.190 C 164 120.676, 162.452 120.135, 154.544 118.885 C 145.215 117.410, 145.083 117.417, 144.680 119.445 C 144.277 121.476, 144.271 121.476, 144.136 119.401 C 144.008 117.425, 143.665 117.351, 138.250 118.134 C 123.837 120.218, 125 120.262, 125 117.627 C 125 115.310, 127.071 113.404, 132.849 110.404 C 134.141 109.733, 143.023 102.085, 152.587 93.407 C 168.349 79.105, 169.836 77.476, 168.487 75.986 C 167.669 75.082, 167 73.815, 167 73.171 C 167 72.364, 164.230 72, 158.082 72 C 153.177 72, 148.564 71.816, 147.832 71.590 C 147.099 71.365, 134.350 73.692, 119.500 76.761 M 78.412 136.250 C 78.914 145.662, 78.719 149.763, 77.569 153.953 C 76.747 156.953, 76.170 159.456, 76.287 159.516 C 76.404 159.576, 78.172 160.112, 80.216 160.708 C 84.331 161.908, 83.858 162.452, 86.040 154.025 C 86.824 150.995, 86.969 145.426, 86.488 136.775 L 85.777 124 81.768 124 L 77.759 124 78.412 136.250 M 132.065 126.135 C 129.076 126.631, 126.511 127.155, 126.367 127.300 C 125.489 128.178, 128.487 143.028, 130.056 145.578 C 134.779 153.252, 140.357 151.722, 150.577 139.951 C 156.620 132.991, 159.029 128.696, 157.660 127.326 C 155.558 125.225, 141.499 124.570, 132.065 126.135 M 36.832 139.843 C 30.297 148.562, 27.901 150.804, 14.794 160.470 L 0.088 171.315 2.141 174.199 C 3.514 176.126, 4.578 176.781, 5.348 176.173 C 5.981 175.672, 12.842 170.591, 20.593 164.881 C 32.654 155.996, 35.666 153.203, 41.486 145.500 C 45.226 140.550, 48.663 136.015, 49.122 135.423 C 49.638 134.758, 48.848 133.524, 47.061 132.203 L 44.164 130.061 36.832 139.843" stroke="none" fill="black" fill-rule="evenodd"/>
</svg>