<svg xmlns="http://www.w3.org/2000/svg" width="256" height="256" viewBox="0 0 256 256" version="1.1">
	<path d="M 85.015 9.861 C 83.861 15.162, 82.559 20.159, 82.122 20.964 C 81.178 22.704, 65.072 29.396, 58.410 30.817 L 53.728 31.816 54.386 23.658 C 54.747 19.171, 55.316 13.363, 55.650 10.750 L 56.258 6 52.258 6 L 48.258 6 47.650 10.750 C 47.316 13.363, 46.747 19.173, 46.385 23.662 C 46.023 28.151, 45.451 32.257, 45.114 32.786 C 44.776 33.315, 35.050 35.679, 23.500 38.039 C 11.950 40.398, 2.400 42.393, 2.277 42.471 C 2.155 42.549, 2.497 44.217, 3.039 46.178 L 4.023 49.743 24.292 45.531 L 44.561 41.320 44.174 44.633 C 43.962 46.455, 44.318 50.156, 44.966 52.857 L 46.144 57.769 49.822 56.697 C 51.845 56.107, 53.633 55.539, 53.795 55.434 C 53.957 55.329, 53.568 53.171, 52.931 50.639 C 52.293 48.106, 52.055 44.522, 52.401 42.674 C 53.016 39.397, 53.205 39.284, 60.107 38.050 C 63.998 37.355, 69.832 35.709, 73.071 34.393 C 76.310 33.077, 79.203 32, 79.499 32 C 80.452 32, 78.784 37.368, 76.391 42 C 74.381 45.891, 73.984 46.217, 73.458 44.409 C 72.903 42.502, 72.506 42.410, 68.945 43.360 C 65.064 44.396, 65.044 44.427, 65.660 48.451 C 66 50.678, 66.423 52.670, 66.599 52.877 C 66.776 53.084, 66.230 54.588, 65.386 56.220 C 63.611 59.653, 63.450 59.355, 68.116 61.288 L 71.732 62.786 73.424 59.238 C 74.791 56.370, 74.865 55.530, 73.808 54.860 C 72.790 54.214, 72.844 54.027, 74.050 54.015 C 74.902 54.007, 76.083 54.483, 76.673 55.073 C 78.274 56.674, 85.082 44.114, 87.500 35.098 L 89.500 27.641 104.192 21.571 C 112.273 18.232, 119.155 15.218, 119.485 14.874 C 119.816 14.529, 119.319 12.640, 118.382 10.675 C 116.864 7.491, 116.451 7.225, 114.589 8.236 C 109.078 11.226, 92.465 17.756, 92.203 17.034 C 92.040 16.585, 92.611 13.177, 93.473 9.462 C 94.334 5.746, 94.918 2.632, 94.770 2.541 C 94.621 2.450, 92.838 1.891, 90.807 1.299 L 87.114 0.222 85.015 9.861 M 87.682 59.118 L 67.865 67.951 45.682 72.119 C 33.482 74.411, 23.400 76.360, 23.277 76.450 C 23.155 76.539, 23.493 78.200, 24.029 80.141 L 25.003 83.670 49.251 78.995 L 73.500 74.321 92 66.066 C 102.175 61.526, 110.645 57.672, 110.822 57.500 C 111 57.329, 110.325 55.635, 109.322 53.737 L 107.500 50.285 87.682 59.118 M 84 80.987 C 72.068 88.903, 69.976 89.947, 65.987 89.972 C 62.460 89.994, 60.342 89.238, 56.295 86.513 L 51.118 83.026 49.146 85.795 L 47.175 88.563 53.087 92.392 C 56.339 94.497, 59 96.538, 59 96.926 C 59 98.113, 52.008 101.550, 41.500 105.529 C 36 107.611, 31.400 109.382, 31.277 109.464 C 31.155 109.546, 31.512 111.272, 32.073 113.301 L 33.091 116.989 36.699 115.481 C 38.683 114.652, 40.397 114.092, 40.506 114.237 C 40.616 114.382, 41.109 115.210, 41.603 116.079 C 42.398 117.477, 45.634 116.996, 70 111.857 C 95.857 106.404, 98.228 106.071, 109.690 106.279 L 121.880 106.500 109.047 115.739 C 94.536 126.188, 88.248 129.318, 82.801 128.805 C 79.688 128.512, 79.016 128.801, 78.557 130.631 C 78.186 132.107, 76.253 133.533, 72.530 135.076 C 67.801 137.036, 67.125 137.650, 67.602 139.549 C 68.125 141.632, 67.741 141.789, 60.471 142.471 L 52.788 143.190 53.394 146.220 C 53.727 147.887, 54 149.557, 54 149.932 C 54 150.306, 57.938 150.055, 62.750 149.372 C 77.286 147.311, 76.471 147.053, 77.787 154.131 C 78.414 157.503, 79.566 160.991, 80.347 161.881 C 82.635 164.492, 74.313 226.931, 69.566 242.770 C 67.647 249.172, 66.215 254.548, 66.384 254.717 C 66.553 254.886, 68.408 255.131, 70.508 255.262 L 74.326 255.500 77.613 244.500 C 80.139 236.045, 81.814 226.362, 84.850 202.649 C 87.023 185.682, 89.322 171.282, 89.960 170.649 C 90.835 169.781, 90.972 169.885, 90.520 171.074 C 90.055 172.296, 91.154 172.992, 95.425 174.181 C 99.312 175.263, 101.063 175.388, 101.386 174.606 C 101.704 173.834, 101.866 173.850, 101.921 174.658 C 101.977 175.481, 103.455 175.351, 107.030 174.208 C 110.635 173.055, 111.903 172.191, 111.507 171.158 C 111.084 170.055, 111.267 169.977, 112.286 170.823 C 113.323 171.683, 115.329 170.208, 121.340 164.161 C 125.586 159.889, 128.747 156.081, 128.364 155.697 C 127.980 155.314, 128.192 155, 128.833 155 C 129.581 155, 130 153.024, 130 149.500 C 130 145.278, 129.652 144, 128.500 144 C 127.675 144, 127 143.426, 127 142.724 C 127 141.848, 122.633 140.815, 113.044 139.423 L 99.087 137.397 98.680 139.448 C 98.277 141.479, 98.271 141.478, 98.136 139.409 C 98.012 137.507, 97.592 137.379, 93.500 138 C 87.642 138.889, 87.755 137.438, 93.750 134.788 C 96.362 133.634, 98.950 132.155, 99.500 131.501 C 100.491 130.325, 129.858 109.139, 135.357 105.635 C 137.445 104.304, 137.916 103.516, 137.107 102.707 C 136.498 102.098, 136 100.790, 136 99.800 C 136 98.134, 134.672 98, 118.143 98 C 101.151 98, 99.351 98.195, 81.001 102.025 C 70.395 104.239, 61.543 105.877, 61.331 105.664 C 61.118 105.451, 70.146 99.268, 81.392 91.924 C 102.781 77.958, 102.358 78.399, 98.823 73.765 C 97.610 72.175, 96.375 72.777, 84 80.987 M 1.591 116.926 C 1.353 117.792, 0.887 119.453, 0.554 120.618 C 0.031 122.450, 0.465 122.819, 3.765 123.346 C 7.073 123.875, 7.873 124.560, 9.784 128.492 C 11.769 132.578, 11.891 133.698, 11.014 139.764 C 9.625 149.365, 9.507 149, 14 149 C 16.200 149, 18 148.622, 18 148.159 C 18 147.696, 18.503 143.583, 19.117 139.019 C 20.209 130.907, 20.171 130.588, 17.457 124.910 C 14.999 119.767, 14.459 119.219, 12.746 120.136 C 11.097 121.019, 10.899 120.893, 11.410 119.284 C 11.918 117.683, 11.251 117.241, 7.016 116.374 C 2.755 115.501, 1.960 115.582, 1.591 116.926 M 33.750 145.810 C 31.688 145.981, 30.014 146.431, 30.032 146.810 C 30.049 147.190, 30.695 151.915, 31.466 157.311 C 32.681 165.812, 32.676 167.668, 31.424 171.217 C 30.629 173.469, 30.096 175.382, 30.239 175.468 C 30.383 175.555, 32.167 176.111, 34.205 176.705 L 37.911 177.785 39.507 172.980 C 40.964 168.592, 40.966 167.196, 39.530 156.900 C 38.665 150.698, 37.854 145.596, 37.729 145.562 C 37.603 145.528, 35.813 145.640, 33.750 145.810 M 91.494 145.689 C 89.998 146.896, 90.236 162.374, 91.780 164.235 C 93.844 166.722, 101.195 168.166, 105.139 166.859 C 109.582 165.387, 122 153.253, 122 150.384 C 122 148.511, 121.145 148.057, 115.750 147.069 C 107.286 145.518, 92.733 144.690, 91.494 145.689 M 77.813 232.683 C 78.534 232.972, 79.397 232.936, 79.729 232.604 C 80.061 232.272, 79.471 232.036, 78.417 232.079 C 77.252 232.127, 77.015 232.364, 77.813 232.683" stroke="none" fill="black" fill-rule="evenodd"/>
</svg>