<svg xmlns="http://www.w3.org/2000/svg" width="256" height="256" viewBox="0 0 256 256" version="1.1">
	<path d="M 106.638 1.500 C 107.003 2.450, 106.625 3, 105.607 3 C 104.250 3, 104 4.400, 104 12 L 104 21 108 21 L 112 21 112 13.083 C 112 8.033, 112.414 5.029, 113.143 4.786 C 113.995 4.502, 113.986 3.843, 113.108 2.202 C 111.698 -0.433, 105.645 -1.090, 106.638 1.500 M 132.124 20.706 C 130.268 21.477, 128.079 22.779, 127.259 23.598 C 123.640 27.218, 113.668 30.973, 99.267 34.139 C 84.179 37.457, 84.086 37.494, 84.676 39.989 C 85.830 44.867, 85.732 44.861, 103 41.015 C 117.396 37.809, 120.743 36.670, 129.250 32.084 C 134.613 29.193, 138.981 26.529, 138.958 26.164 C 138.935 25.799, 138.148 24.106, 137.208 22.402 C 135.531 19.360, 135.438 19.329, 132.124 20.706 M 137.915 43.441 C 134.843 45.894, 131.468 47.854, 130.415 47.796 C 129.362 47.739, 123.327 50.915, 117.005 54.854 L 105.511 62.017 103.909 57.258 C 102.554 53.234, 102.514 52.181, 103.648 50.434 C 104.855 48.575, 104.697 48.152, 102.074 46.213 L 99.160 44.058 97.101 47.279 C 95.195 50.261, 95.166 50.593, 96.712 51.750 C 98.211 52.872, 98.147 53, 96.084 53 C 94.666 53, 93.963 53.479, 94.247 54.250 C 94.501 54.938, 95.477 57.838, 96.416 60.695 C 97.740 64.721, 98.487 65.750, 99.736 65.271 C 100.971 64.797, 101.186 65.073, 100.656 66.453 C 100.212 67.611, 100.569 68.695, 101.656 69.490 C 103.204 70.623, 103.143 70.859, 100.923 72.292 C 99.591 73.153, 94.225 75.729, 89 78.016 C 83.775 80.304, 79.368 82.305, 79.207 82.464 C 79.046 82.623, 79.667 84.332, 80.588 86.262 L 82.262 89.772 86.642 87.834 C 91.688 85.602, 92.522 85.859, 93.329 89.896 C 93.767 92.083, 94.375 92.722, 95.708 92.396 C 108.516 89.259, 146.569 82, 150.202 82 L 154.977 82 142.238 94.052 C 135.232 100.680, 127.025 107.576, 124 109.375 C 120.975 111.175, 115.929 114.162, 112.786 116.013 L 107.071 119.379 109.069 122.612 C 111.411 126.401, 111.372 126.426, 101.651 127.568 L 95.801 128.255 96.401 131.253 C 96.730 132.901, 97 134.567, 97 134.954 C 97 135.340, 100.686 135.071, 105.192 134.354 C 109.697 133.637, 113.568 133.234, 113.793 133.460 C 114.018 133.685, 114.520 136.486, 114.908 139.685 C 115.295 142.883, 116.071 146.400, 116.631 147.500 C 117.358 148.930, 116.578 160.805, 113.891 189.181 C 110.233 227.819, 110.029 229.198, 106.110 241.641 C 103.897 248.669, 102.222 254.555, 102.388 254.722 C 102.555 254.888, 104.413 255.131, 106.518 255.262 L 110.346 255.500 114.127 243.537 C 117.722 232.164, 118.069 229.829, 121.162 196.259 C 122.952 176.836, 124.713 160.465, 125.075 159.878 C 125.522 159.155, 126.718 159.320, 128.789 160.391 C 131.133 161.603, 131.978 161.683, 132.422 160.735 C 132.858 159.804, 133.138 159.790, 133.560 160.680 C 134.420 162.491, 143.215 159.003, 142.498 157.135 C 142.071 156.022, 142.255 155.967, 143.352 156.877 C 144.480 157.813, 146.338 156.297, 152.983 149.019 C 157.511 144.058, 160.830 139.993, 160.358 139.985 C 159.886 139.976, 160.017 139.639, 160.648 139.235 C 161.280 138.831, 162.120 135.912, 162.514 132.750 C 163.186 127.360, 163.100 127, 161.147 127 C 159.856 127, 159.251 126.509, 159.558 125.710 C 160.204 124.026, 142.299 120.747, 141.605 122.422 C 141.289 123.184, 141.135 123.185, 141.079 122.427 C 141.024 121.678, 138.656 121.738, 133.250 122.624 C 122.863 124.326, 123 124.340, 123 121.580 C 123 119.728, 124.271 118.380, 128.421 115.830 C 131.403 113.999, 141.523 105.330, 150.911 96.567 C 166.387 82.120, 167.840 80.480, 166.489 78.988 C 165.670 78.083, 165 76.846, 165 76.240 C 165 75.534, 161.496 75.023, 155.250 74.819 C 146.654 74.538, 142.491 75.120, 120.073 79.739 C 95.877 84.725, 89.462 85.653, 97.481 83.006 C 99.469 82.350, 101.862 81.020, 102.798 80.050 C 103.734 79.081, 113.950 70.965, 125.500 62.015 C 137.050 53.066, 146.824 45.454, 147.221 45.101 C 147.617 44.748, 146.942 43.226, 145.721 41.720 L 143.500 38.981 137.915 43.441 M 16.748 50.817 C 14.380 51.089, 14.081 51.474, 14.606 53.567 C 15.071 55.419, 14.817 56, 13.541 56 C 12.412 56, 12.036 56.571, 12.389 57.750 C 12.677 58.712, 13.649 62.483, 14.548 66.128 L 16.182 72.757 19.841 71.691 C 21.853 71.105, 23.605 70.567, 23.733 70.496 C 23.861 70.425, 23.506 68.822, 22.944 66.934 C 22.382 65.045, 21.723 61.113, 21.480 58.196 C 20.928 51.561, 20.196 50.420, 16.748 50.817 M 59.058 92.753 C 58.506 94.752, 58.155 96.448, 58.277 96.521 C 58.400 96.595, 59.918 97.219, 61.652 97.908 C 66.293 99.753, 67.417 105.098, 65.480 116.107 C 64.667 120.723, 64.002 124.790, 64.001 125.145 C 64.001 125.500, 65.800 125.962, 68 126.171 C 70.200 126.381, 72.001 126.316, 72.003 126.026 C 72.005 125.737, 72.709 121.483, 73.568 116.574 C 74.999 108.391, 74.992 107.089, 73.485 100.938 C 72.069 95.160, 71.572 94.299, 69.905 94.735 C 68.540 95.092, 68.128 94.830, 68.506 93.844 C 68.871 92.893, 67.608 91.915, 64.552 90.783 L 60.061 89.118 59.058 92.753 M 11.750 101.784 L 1 102.068 0.998 105.784 L 0.996 109.500 11.064 109.182 C 18.183 108.957, 21.584 109.240, 22.675 110.145 C 24.033 111.273, 24.130 114.951, 23.483 140.826 C 22.872 165.281, 22.980 170.373, 24.124 171.098 C 25.098 171.715, 25.139 171.974, 24.266 171.985 C 23.366 171.996, 23.477 172.932, 24.677 175.449 C 26.074 178.379, 26.608 178.745, 28.225 177.880 C 29.537 177.177, 30.533 177.197, 31.432 177.944 C 33.682 179.811, 45.188 160.230, 51.528 143.748 C 54.515 135.981, 56.856 129.570, 56.730 129.500 C 56.603 129.431, 54.841 128.892, 52.814 128.301 C 49.686 127.389, 49.030 127.474, 48.486 128.863 C 48.133 129.763, 45.782 135.900, 43.262 142.500 C 40.741 149.100, 36.934 157.200, 34.802 160.500 L 30.925 166.500 31.600 137.750 C 32.117 115.725, 31.995 109, 31.079 109 C 30.420 109, 30.118 108.619, 30.405 108.153 C 30.693 107.687, 29.644 106.075, 28.074 104.571 C 25.957 102.543, 25.017 102.163, 24.437 103.102 C 23.824 104.093, 23.530 104.057, 23.077 102.934 C 22.616 101.788, 20.342 101.557, 11.750 101.784 M 76.988 139.750 C 76.981 147.684, 76.428 154.560, 75.525 157.953 C 74.727 160.953, 74.170 163.456, 74.287 163.516 C 74.404 163.576, 76.179 164.115, 78.230 164.713 C 81.958 165.800, 81.962 165.798, 83.133 162.150 C 83.778 160.143, 84.502 151.412, 84.741 142.750 L 85.176 127 81.088 127 L 77 127 76.988 139.750 M 130.166 130.226 C 124.396 131.110, 123.878 131.388, 124.342 133.348 C 124.622 134.532, 125.167 138.200, 125.551 141.500 C 126.408 148.852, 127.248 150.560, 130.948 152.473 C 133.466 153.775, 134.272 153.784, 137.241 152.544 C 141.289 150.853, 153.412 137.614, 154.328 133.885 C 154.943 131.383, 154.726 131.221, 149.318 130.135 C 142.859 128.838, 139.104 128.856, 130.166 130.226" stroke="none" fill="black" fill-rule="evenodd"/>
</svg>