<svg xmlns="http://www.w3.org/2000/svg" width="256" height="256" viewBox="0 0 256 256" version="1.1">
	<path d="M 75.500 19.681 L 62.500 39.322 41 44.818 C 29.175 47.841, 19.400 50.382, 19.277 50.464 C 19.155 50.545, 19.501 52.230, 20.047 54.207 L 21.039 57.802 37.770 53.408 C 46.971 50.991, 54.839 49.124, 55.254 49.258 C 55.669 49.393, 53.012 54.002, 49.350 59.501 C 44.587 66.654, 36.901 75.515, 22.349 90.630 C 4.885 108.770, 2.221 111.939, 3.528 113.023 C 4.881 114.146, 4.884 114.471, 3.552 115.942 C 2.194 117.443, 2.840 118.380, 10.477 125.977 C 18.383 133.842, 18.940 134.675, 19.548 139.538 C 20.023 143.339, 19.643 146.673, 18.121 152.050 C 16.980 156.081, 16.149 159.435, 16.273 159.502 C 16.398 159.570, 18.169 160.112, 20.210 160.707 L 23.920 161.788 25.710 156.144 C 27.877 149.311, 27.946 133.216, 25.813 131.863 C 25.091 131.405, 24.940 131.024, 25.478 131.015 C 26.016 131.007, 22.779 127.287, 18.285 122.750 L 10.115 114.500 29.514 94.500 C 46.036 77.467, 50.363 72.331, 58.681 59.880 L 68.448 45.260 75.883 43.507 C 81.517 42.179, 112.880 29.274, 114.822 27.486 C 115 27.322, 114.325 25.642, 113.322 23.752 L 111.500 20.315 93.698 28.272 C 83.907 32.649, 75.662 35.995, 75.376 35.709 C 75.089 35.423, 79.599 28.081, 85.397 19.394 L 95.940 3.600 93.220 1.807 C 91.724 0.820, 90.050 0.019, 89.500 0.027 C 88.950 0.034, 82.650 8.878, 75.500 19.681 M 210.500 31.895 C 209.400 32.317, 199.854 34.639, 189.287 37.053 L 170.073 41.443 170.672 43.972 C 171.817 48.814, 171.849 48.817, 186.500 45.349 C 194.200 43.527, 200.822 42.140, 201.215 42.268 C 201.608 42.396, 191.933 53.402, 179.715 66.727 C 158.934 89.391, 156.647 91.549, 144.287 100.170 C 133.985 107.355, 131.314 109.673, 132.160 110.692 C 132.924 111.613, 132.932 112.377, 132.188 113.273 C 131.402 114.221, 132.534 116.400, 136.606 121.783 L 142.081 129.018 141.036 141.051 C 140.207 150.598, 139.461 154.129, 137.428 158.142 C 136.019 160.923, 135.008 163.332, 135.183 163.494 C 135.357 163.657, 137.128 164.464, 139.117 165.288 L 142.734 166.787 145.346 161.143 C 147.463 156.569, 148.160 152.960, 149.025 142.088 C 149.816 132.161, 149.799 128.494, 148.961 127.976 C 148.339 127.591, 147.872 126.877, 147.924 126.388 C 147.976 125.900, 145.931 122.656, 143.379 119.181 C 140.827 115.705, 139.135 112.516, 139.619 112.093 C 141.442 110.504, 157.639 99.167, 160.929 97.178 C 162.815 96.037, 176.397 81.953, 191.111 65.879 L 217.865 36.653 215.682 33.882 C 213.257 30.802, 213.301 30.819, 210.500 31.895 M 72 82.341 C 58.525 85.094, 47.400 87.407, 47.277 87.480 C 47.155 87.553, 47.498 89.220, 48.040 91.184 L 49.027 94.756 72.763 89.808 C 94.605 85.255, 96.918 84.951, 101.733 85.998 C 104.611 86.624, 107.212 87.535, 107.513 88.022 C 107.815 88.509, 105.556 103.441, 102.495 121.204 C 97.639 149.380, 96.496 154.409, 93.534 160.626 L 90.139 167.751 94.092 169.304 L 98.044 170.856 101.087 164.827 C 103.691 159.669, 105.059 153.506, 110.560 122.149 C 114.096 101.992, 116.992 85.388, 116.995 85.250 C 116.998 85.112, 116.070 85, 114.933 85 C 113.414 85, 113.014 84.533, 113.424 83.240 C 113.893 81.763, 112.695 81.138, 105.991 79.359 C 100.623 77.935, 97.995 77.610, 97.985 78.370 C 97.974 79.167, 97.753 79.181, 97.235 78.417 C 96.728 77.671, 88.897 78.888, 72 82.341 M 192.500 96.383 C 178.200 98.561, 166.358 100.445, 166.186 100.570 C 166.013 100.694, 166.159 102.329, 166.510 104.204 L 167.150 107.611 192.325 103.690 L 217.500 99.768 224 101.471 C 227.575 102.408, 230.651 103.324, 230.836 103.507 C 231.021 103.689, 230.390 107.363, 229.434 111.669 C 227.849 118.809, 226.761 120.857, 217.098 134.889 C 208.530 147.331, 204.918 151.629, 198.240 157.325 L 189.980 164.370 192.641 167.147 L 195.301 169.924 198.401 167.310 C 200.105 165.872, 203.454 163.076, 205.843 161.097 C 208.332 159.036, 215.684 149.544, 223.065 138.864 C 235.629 120.685, 235.994 120.006, 237.972 111.125 C 240.429 100.095, 240.433 101, 237.933 101 C 236.390 101, 236.012 100.539, 236.442 99.183 C 236.932 97.639, 235.735 96.980, 228.509 94.814 C 223.072 93.183, 219.994 92.666, 219.985 93.381 C 219.974 94.134, 219.729 94.160, 219.235 93.461 C 218.741 92.763, 209.983 93.720, 192.500 96.383 M 61 116.938 L 61 120.875 72.075 121.188 C 81.249 121.446, 83.399 121.224, 84.600 119.893 C 85.869 118.488, 85.860 118.128, 84.525 117.021 C 83.686 116.325, 83 115.135, 83 114.378 C 83 113.291, 80.677 113, 72 113 L 61 113 61 116.938 M 59 137 L 59 141 68.277 141 C 74.982 141, 78.160 141.424, 79.737 142.528 C 81.795 143.970, 82.006 143.890, 83.435 141.126 C 84.766 138.552, 84.771 138.126, 83.475 137.629 C 82.664 137.318, 82 136.149, 82 135.031 C 82 133.107, 81.393 133, 70.500 133 L 59 133 59 137 M 166.476 166.816 C 152.686 191.456, 147.546 199.733, 143.355 204.046 L 137.966 209.593 140.803 212.311 L 143.640 215.030 149.461 208.765 C 153.942 203.942, 159.067 195.711, 171.730 173 C 180.777 156.775, 188.788 142.334, 189.533 140.908 C 190.824 138.439, 190.730 138.242, 187.547 136.724 L 184.207 135.131 166.476 166.816 M 65.250 157.383 L 49 158.267 49 161.883 L 48.999 165.500 63.696 164.632 C 73.858 164.032, 78.922 164.095, 80.111 164.837 C 81.492 165.700, 82.138 165.438, 83.407 163.501 C 84.731 161.480, 84.763 160.963, 83.605 160.296 C 82.845 159.858, 82.060 158.825, 81.861 158 C 81.548 156.698, 79.359 156.616, 65.250 157.383 M 98.500 176.617 C 79.957 184.231, 73.738 185.683, 36.500 191.093 C 16.700 193.969, 0.337 196.450, 0.138 196.607 C -0.061 196.763, 0.164 198.397, 0.638 200.238 L 1.500 203.584 38 198.310 C 73.458 193.185, 74.993 192.870, 91.772 187.267 L 109.043 181.500 108.407 178.500 C 107.281 173.190, 106.983 173.134, 98.500 176.617 M 177.164 184.770 L 175.132 187.623 200.256 206.062 L 225.380 224.500 240.110 229.679 C 255.785 235.189, 256 235.188, 256 229.548 C 256 227.503, 254.460 226.719, 241.510 222.172 L 227.020 217.085 204.260 200.393 C 191.742 191.213, 180.981 183.300, 180.348 182.809 C 179.586 182.220, 178.506 182.885, 177.164 184.770 M 31.942 223.306 C 24.082 234.413, 16.537 244.554, 15.175 245.842 L 12.698 248.184 15.599 250.556 C 17.195 251.861, 18.771 252.944, 19.102 252.964 C 19.584 252.993, 48.544 212.879, 51.211 208.488 C 51.627 207.802, 50.744 206.447, 49.077 205.215 L 46.232 203.112 31.942 223.306 M 81.066 212.724 C 80.509 214.739, 80.155 216.450, 80.277 216.526 C 80.400 216.601, 83.007 217.659, 86.071 218.875 C 91.449 221.010, 91.774 221.359, 95.467 228.932 L 99.291 236.776 102.896 235.283 C 104.878 234.462, 106.635 233.664, 106.800 233.511 C 106.966 233.358, 105.193 229.385, 102.860 224.683 C 99.083 217.065, 98.412 216.244, 96.715 217.152 C 95.086 218.024, 94.901 217.888, 95.433 216.210 C 95.868 214.839, 95.520 214.097, 94.278 213.747 C 93.300 213.471, 90.155 212.304, 87.289 211.153 L 82.078 209.060 81.066 212.724" stroke="none" fill="black" fill-rule="evenodd"/>
</svg>